<svg width="1191" height="1557" viewBox="0 0 1191 1557" fill="none" xmlns="http://www.w3.org/2000/svg">
<path d="M192.33 1264V1125.4H300.27V1153.33H228.45V1181.47H285.57V1207.72H228.45V1236.07H303V1264H192.33ZM485.25 1125.4V1264H453.33V1200.37L454.38 1157.74H453.96L419.73 1264H390.54L356.31 1157.74H355.89L356.94 1200.37V1264H324.81V1125.4H376.26L398.1 1195.96L405.87 1225.36H406.29L414.27 1196.17L435.9 1125.4H485.25ZM579.573 1125.4C596.373 1125.4 609.463 1129.46 618.843 1137.58C628.363 1145.56 633.123 1156.9 633.123 1171.6C633.123 1186.3 628.363 1197.71 618.843 1205.83C609.463 1213.81 596.373 1217.8 579.573 1217.8H552.063V1264H515.943V1125.4H579.573ZM573.903 1190.71C589.163 1190.71 596.793 1184.34 596.793 1171.6C596.793 1158.86 589.163 1152.49 573.903 1152.49H552.063V1190.71H573.903ZM692.337 1125.4V1264H656.217V1125.4H692.337ZM789.222 1125.4C805.742 1125.4 818.552 1129.25 827.652 1136.95C836.892 1144.65 841.512 1155.01 841.512 1168.03C841.512 1178.39 839.062 1186.93 834.162 1193.65C829.402 1200.23 822.542 1205.06 813.582 1208.14L849.702 1264H809.802L780.192 1213.39H758.562V1264H723.072V1125.4H789.222ZM784.182 1187.77C791.182 1187.77 796.432 1186.37 799.932 1183.57C803.432 1180.77 805.182 1176.29 805.182 1170.13C805.182 1158.51 798.182 1152.7 784.182 1152.7H758.562V1187.77H784.182ZM867.857 1264V1125.4H975.797V1153.33H903.977V1181.47H961.097V1207.72H903.977V1236.07H978.527V1264H867.857ZM300.06 1357.33H228.45V1386.73H285.57V1414.66H228.45V1468H192.33V1329.4H300.06V1357.33ZM387.064 1329.4C403.584 1329.4 416.394 1333.25 425.494 1340.95C434.734 1348.65 439.354 1359.01 439.354 1372.03C439.354 1382.39 436.904 1390.93 432.004 1397.65C427.244 1404.23 420.384 1409.06 411.424 1412.14L447.544 1468H407.644L378.034 1417.39H356.404V1468H320.914V1329.4H387.064ZM382.024 1391.77C389.024 1391.77 394.274 1390.37 397.774 1387.57C401.274 1384.77 403.024 1380.29 403.024 1374.13C403.024 1362.51 396.024 1356.7 382.024 1356.7H356.404V1391.77H382.024ZM465.699 1468V1329.4H573.639V1357.33H501.819V1385.47H558.939V1411.72H501.819V1440.07H576.369V1468H465.699ZM723.13 1329.4V1468H683.02L639.97 1393.03L629.47 1372.45H629.26L630.1 1398.07V1468H598.18V1329.4H638.29L681.34 1404.37L691.84 1424.95H692.05L691.21 1399.33V1329.4H723.13ZM865.134 1440.7V1468H746.274V1441.96L823.764 1356.7H747.744V1329.4H862.614V1355.44L785.544 1440.7H865.134ZM1007.47 1329.4L958.54 1417.39V1468H922.42V1417.39L873.49 1329.4H910.87L930.4 1367.41L940.69 1390.51L951.19 1367.41L970.72 1329.4H1007.47Z" fill="#2A2A2F"/>
<mask id="mask0" mask-type="alpha" maskUnits="userSpaceOnUse" x="0" y="0" width="1191" height="1076">
<rect width="1191" height="1076" fill="#C4C4C4"/>
</mask>
<g mask="url(#mask0)">
<path d="M564.679 457.16H533.039C528.621 457.16 525.039 460.742 525.039 465.16V496.8C525.039 501.218 528.621 504.8 533.039 504.8H564.679C569.097 504.8 572.679 501.218 572.679 496.8V465.16C572.679 460.742 569.097 457.16 564.679 457.16Z" fill="#2A2A2F"/>
<path d="M469.398 647.72H437.758C433.34 647.72 429.758 651.302 429.758 655.72V687.36C429.758 691.778 433.34 695.36 437.758 695.36H469.398C473.816 695.36 477.398 691.778 477.398 687.36V655.72C477.398 651.302 473.816 647.72 469.398 647.72Z" fill="#2A2A2F"/>
<path d="M469.398 743H437.758C433.34 743 429.758 746.582 429.758 751V782.64C429.758 787.058 433.34 790.64 437.758 790.64H469.398C473.816 790.64 477.398 787.058 477.398 782.64V751C477.398 746.582 473.816 743 469.398 743Z" fill="#2A2A2F"/>
<path d="M469.398 838.28H437.758C433.34 838.28 429.758 841.862 429.758 846.28V877.92C429.758 882.339 433.34 885.92 437.758 885.92H469.398C473.816 885.92 477.398 882.339 477.398 877.92V846.28C477.398 841.862 473.816 838.28 469.398 838.28Z" fill="#2A2A2F"/>
<path d="M612.32 1005.02H580.68C576.261 1005.02 572.68 1008.6 572.68 1013.02V1044.66C572.68 1049.08 576.261 1052.66 580.68 1052.66H612.32C616.738 1052.66 620.32 1049.08 620.32 1044.66V1013.02C620.32 1008.6 616.738 1005.02 612.32 1005.02Z" fill="#2A2A2F"/>
<path d="M659.96 457.16H628.32C623.902 457.16 620.32 460.742 620.32 465.16V496.8C620.32 501.218 623.902 504.8 628.32 504.8H659.96C664.379 504.8 667.96 501.218 667.96 496.8V465.16C667.96 460.742 664.379 457.16 659.96 457.16Z" fill="#2A2A2F"/>
<path d="M755.242 647.72H723.602C719.183 647.72 715.602 651.302 715.602 655.72V687.36C715.602 691.778 719.183 695.36 723.602 695.36H755.242C759.66 695.36 763.242 691.778 763.242 687.36V655.72C763.242 651.302 759.66 647.72 755.242 647.72Z" fill="#2A2A2F"/>
<path d="M755.242 743H723.602C719.183 743 715.602 746.582 715.602 751V782.64C715.602 787.058 719.183 790.64 723.602 790.64H755.242C759.66 790.64 763.242 787.058 763.242 782.64V751C763.242 746.582 759.66 743 755.242 743Z" fill="#2A2A2F"/>
<path d="M755.242 838.28H723.602C719.183 838.28 715.602 841.862 715.602 846.28V877.92C715.602 882.339 719.183 885.92 723.602 885.92H755.242C759.66 885.92 763.242 882.339 763.242 877.92V846.28C763.242 841.862 759.66 838.28 755.242 838.28Z" fill="#2A2A2F"/>
<path d="M571.68 71.5V123.28C566.173 123.28 560.837 125.188 556.578 128.679C552.32 132.17 549.402 137.029 548.322 142.429L525.917 254.456L483.376 296.997C478.909 301.464 476.4 307.523 476.4 313.84V361.48H452.58C446.263 361.48 440.204 363.99 435.737 368.457C431.27 372.924 428.76 378.983 428.76 385.3V552.04H357.3C350.983 552.04 344.924 554.55 340.457 559.017C335.99 563.484 333.48 569.543 333.48 575.86V1028.44H214.38C208.063 1028.44 202.004 1030.95 197.537 1035.42C193.07 1039.88 190.56 1045.94 190.56 1052.26V1123.72H23.82C17.5026 1123.72 11.4439 1126.23 6.97679 1130.7C2.50969 1135.16 6.31734e-05 1141.22 0 1147.54V1433.38C6.31734e-05 1439.7 2.50969 1445.76 6.97679 1450.22C11.4439 1454.69 17.5026 1457.2 23.82 1457.2H1167.18C1173.5 1457.2 1179.56 1454.69 1184.02 1450.22C1188.49 1445.76 1191 1439.7 1191 1433.38V1147.54C1191 1141.22 1188.49 1135.16 1184.02 1130.7C1179.56 1126.23 1173.5 1123.72 1167.18 1123.72H1000.44V1052.26C1000.44 1045.94 997.93 1039.88 993.463 1035.42C988.996 1030.95 982.937 1028.44 976.62 1028.44H857.52V575.86C857.52 569.543 855.01 563.484 850.543 559.017C846.076 554.55 840.017 552.04 833.7 552.04H762.24V385.3C762.24 378.983 759.73 372.924 755.263 368.457C750.796 363.99 744.737 361.48 738.42 361.48H714.6V313.84C714.6 307.523 712.091 301.464 707.624 296.997L665.083 254.456L642.678 142.429C641.598 137.029 638.68 132.17 634.422 128.679C630.163 125.188 624.827 123.28 619.32 123.28V71.5H571.68ZM614.083 242.38H576.917L591.208 170.92H599.792L614.083 242.38ZM381.12 599.68H524.04V909.34H500.22C493.903 909.34 487.844 911.85 483.377 916.317C478.91 920.784 476.4 926.843 476.4 933.16V1028.44H381.12V599.68ZM666.96 956.98V1409.56H524.04V956.98H666.96ZM476.4 1076.08V1409.56H238.2V1076.08H476.4ZM47.64 1171.36H190.56V1409.56H47.64V1171.36ZM1143.36 1171.36V1409.56H1000.44V1171.36H1143.36ZM952.8 1409.56H714.6V1076.08H952.8V1409.56ZM809.88 1028.44H714.6V933.16C714.6 926.843 712.09 920.784 707.623 916.317C703.156 911.85 697.097 909.34 690.78 909.34H666.96V599.68H809.88V1028.44ZM643.14 552.04C636.823 552.04 630.764 554.55 626.297 559.017C621.83 563.484 619.32 569.543 619.32 575.86V909.34H571.68V575.86C571.68 569.543 569.17 563.484 564.703 559.017C560.236 554.55 554.177 552.04 547.86 552.04H476.4V409.12H714.6V552.04H643.14ZM666.96 361.48H524.04V323.707L557.726 290.02H633.274L666.96 323.707V361.48Z" fill="#7DC3D9"/>
<path d="M601.924 3.01296C601.473 1.24054 599.877 0 598.048 0H592.952C591.123 0 589.527 1.24054 589.076 3.01295L572.27 69.0129C571.626 71.5417 573.537 74 576.146 74H614.854C617.463 74 619.374 71.5417 618.73 69.013L601.924 3.01296Z" fill="#2A2A2F"/>
</g>
<path d="M1000 1510L192 1510L192 1533.5C192 1546.48 202.521 1557 215.5 1557L976.5 1557C989.479 1557 1000 1546.48 1000 1533.5L1000 1510Z" fill="#7DC3D9"/>
</svg>
