<svg width="282" height="407" viewBox="0 0 282 407" fill="none" xmlns="http://www.w3.org/2000/svg">
<rect width="282" height="407" rx="16" transform="matrix(1 0 0 -1 0 407)" fill="#2A2A2F"/>
<rect x="16" y="17" width="250" height="375" rx="8" fill="white"/>
<rect x="16" y="17" width="250" height="375" rx="8" fill="#56FF8F"/>
<path d="M16 25C16 20.5817 19.5817 17 24 17H72.1927V55.924C72.1927 86.9583 47.0343 112.117 16 112.117V112.117V25Z" fill="#2A2A2F"/>
<path d="M41.1435 56.48C37.7515 56.48 34.9355 55.824 32.6955 54.512C30.4555 53.168 28.8875 51.216 27.9915 48.656L35.5755 45.392C35.7675 47.12 36.3115 48.336 37.2075 49.04C38.1355 49.744 39.3355 50.096 40.8075 50.096C42.1195 50.096 43.1595 49.76 43.9275 49.088C44.6955 48.384 45.0795 47.44 45.0795 46.256C45.0795 45.04 44.7115 44.16 43.9755 43.616C43.2395 43.072 42.1995 42.8 40.8555 42.8C40.0875 42.8 39.3035 42.848 38.5035 42.944V37.568C38.7595 37.6 39.0155 37.632 39.2715 37.664C39.5275 37.664 39.8315 37.664 40.1835 37.664C41.6555 37.664 42.7275 37.36 43.3995 36.752C44.0715 36.112 44.4075 35.12 44.4075 33.776C44.4075 32.624 44.0715 31.744 43.3995 31.136C42.7595 30.528 41.8475 30.224 40.6635 30.224C39.3835 30.224 38.3435 30.56 37.5435 31.232C36.7755 31.904 36.2795 33.008 36.0555 34.544L28.8075 32.048C29.1595 30.288 29.9115 28.8 31.0635 27.584C32.2155 26.368 33.6555 25.44 35.3835 24.8C37.1435 24.16 39.0795 23.84 41.1915 23.84C44.8075 23.84 47.5755 24.624 49.4955 26.192C51.4475 27.76 52.4235 29.872 52.4235 32.528C52.4235 33.904 52.1995 35.056 51.7515 35.984C51.3355 36.912 50.7915 37.664 50.1195 38.24C49.4795 38.816 48.8235 39.248 48.1515 39.536C47.4795 39.792 46.9195 39.952 46.4715 40.016V40.16C47.0475 40.16 47.7035 40.272 48.4395 40.496C49.1755 40.72 49.8955 41.088 50.5995 41.6C51.3035 42.112 51.8795 42.8 52.3275 43.664C52.8075 44.496 53.0475 45.552 53.0475 46.832C53.0475 48.816 52.5195 50.528 51.4635 51.968C50.4395 53.408 49.0315 54.528 47.2395 55.328C45.4475 56.096 43.4155 56.48 41.1435 56.48ZM54.6712 61.24V85H49.1992V74.092L49.3792 66.784H49.3072L43.4392 85H38.4352L32.5672 66.784H32.4952L32.6752 74.092V85H27.1672V61.24H35.9872L39.7312 73.336L41.0632 78.376H41.1352L42.5032 73.372L46.2112 61.24H54.6712Z" fill="white"/>
<path d="M82 392C82 373.775 96.7746 359 115 359H266V392H82V392Z" fill="#2A2A2F"/>
<path d="M121.573 367.908C123.813 367.908 125.558 368.449 126.809 369.532C128.078 370.596 128.713 372.108 128.713 374.068C128.713 376.028 128.078 377.549 126.809 378.632C125.558 379.696 123.813 380.228 121.573 380.228H117.905V386.388H113.089V367.908H121.573ZM120.817 376.616C122.852 376.616 123.869 375.766 123.869 374.068C123.869 372.369 122.852 371.52 120.817 371.52H117.905V376.616H120.817ZM140.612 367.908C142.815 367.908 144.523 368.421 145.736 369.448C146.968 370.474 147.584 371.856 147.584 373.592C147.584 374.973 147.257 376.112 146.604 377.008C145.969 377.885 145.055 378.529 143.86 378.94L148.676 386.388H143.356L139.408 379.64H136.524V386.388H131.792V367.908H140.612ZM139.94 376.224C140.873 376.224 141.573 376.037 142.04 375.664C142.507 375.29 142.74 374.693 142.74 373.872C142.74 372.322 141.807 371.548 139.94 371.548H136.524V376.224H139.94ZM159.193 367.628C161.06 367.628 162.665 368.01 164.009 368.776C165.372 369.522 166.417 370.605 167.145 372.024C167.873 373.442 168.237 375.15 168.237 377.148C168.237 379.145 167.873 380.853 167.145 382.272C166.417 383.69 165.372 384.782 164.009 385.548C162.665 386.294 161.06 386.668 159.193 386.668C157.308 386.668 155.684 386.294 154.321 385.548C152.977 384.782 151.941 383.69 151.213 382.272C150.485 380.853 150.121 379.145 150.121 377.148C150.121 375.15 150.485 373.442 151.213 372.024C151.941 370.605 152.977 369.522 154.321 368.776C155.684 368.01 157.308 367.628 159.193 367.628ZM159.193 371.408C157.849 371.408 156.823 371.893 156.113 372.864C155.404 373.816 155.049 375.244 155.049 377.148C155.049 379.052 155.404 380.489 156.113 381.46C156.823 382.412 157.849 382.888 159.193 382.888C160.519 382.888 161.536 382.412 162.245 381.46C162.955 380.489 163.309 379.052 163.309 377.148C163.309 375.244 162.955 373.816 162.245 372.864C161.536 371.893 160.519 371.408 159.193 371.408ZM180.034 367.908C182.274 367.908 184.019 368.449 185.27 369.532C186.539 370.596 187.174 372.108 187.174 374.068C187.174 376.028 186.539 377.549 185.27 378.632C184.019 379.696 182.274 380.228 180.034 380.228H176.366V386.388H171.55V367.908H180.034ZM179.278 376.616C181.313 376.616 182.33 375.766 182.33 374.068C182.33 372.369 181.313 371.52 179.278 371.52H176.366V376.616H179.278ZM190.253 386.388V367.908H204.645V371.632H195.069V375.384H202.685V378.884H195.069V382.664H205.009V386.388H190.253ZM216.737 367.908C218.94 367.908 220.648 368.421 221.861 369.448C223.093 370.474 223.709 371.856 223.709 373.592C223.709 374.973 223.382 376.112 222.729 377.008C222.094 377.885 221.18 378.529 219.985 378.94L224.801 386.388H219.481L215.533 379.64H212.649V386.388H207.917V367.908H216.737ZM216.065 376.224C216.998 376.224 217.698 376.037 218.165 375.664C218.632 375.29 218.865 374.693 218.865 373.872C218.865 372.322 217.932 371.548 216.065 371.548H212.649V376.224H216.065ZM242.543 367.908V371.632H236.523V386.388H231.707V371.632H225.659V367.908H242.543ZM260.876 367.908L254.352 379.64V386.388H249.536V379.64L243.012 367.908H247.996L250.6 372.976L251.972 376.056L253.372 372.976L255.976 367.908H260.876Z" fill="white"/>
<path d="M111.816 79.42C109.352 79.42 107.154 78.874 105.222 77.782C103.318 76.69 101.834 75.08 100.77 72.952C99.7062 70.824 99.1742 68.234 99.1742 65.182C99.1742 62.214 99.7342 59.666 100.854 57.538C101.974 55.382 103.57 53.73 105.642 52.582C107.742 51.434 110.206 50.86 113.034 50.86C116.198 50.86 118.732 51.434 120.636 52.582C122.568 53.702 124.066 55.494 125.13 57.958L118.452 60.604C118.088 59.176 117.444 58.14 116.52 57.496C115.596 56.852 114.448 56.53 113.076 56.53C111.004 56.53 109.394 57.272 108.246 58.756C107.126 60.212 106.566 62.34 106.566 65.14C106.566 68.108 107.14 70.32 108.288 71.776C109.436 73.204 111.158 73.918 113.454 73.918C115.05 73.918 116.38 73.54 117.444 72.784C118.508 72.028 119.04 70.866 119.04 69.298V68.878H112.698V64.048H125.172V79H120.258L119.964 75.598C119.18 76.83 118.102 77.782 116.73 78.454C115.386 79.098 113.748 79.42 111.816 79.42ZM143.932 51.28C147.236 51.28 149.798 52.05 151.618 53.59C153.466 55.13 154.39 57.202 154.39 59.806C154.39 61.878 153.9 63.586 152.92 64.93C151.968 66.246 150.596 67.212 148.804 67.828L156.028 79H148.048L142.126 68.878H137.8V79H130.702V51.28H143.932ZM142.924 63.754C144.324 63.754 145.374 63.474 146.074 62.914C146.774 62.354 147.124 61.458 147.124 60.226C147.124 57.902 145.724 56.74 142.924 56.74H137.8V63.754H142.924ZM159.659 79V51.28H181.247V56.866H166.883V62.494H178.307V67.744H166.883V73.414H181.793V79H159.659ZM186.155 79V51.28H207.743V56.866H193.379V62.494H204.803V67.744H193.379V73.414H208.289V79H186.155ZM237.641 51.28V79H229.619L221.009 64.006L218.909 59.89H218.867L219.035 65.014V79H212.651V51.28H220.673L229.283 66.274L231.383 70.39H231.425L231.257 65.266V51.28H237.641Z" fill="#2A2A2F"/>
<path d="M246.262 207.339L144.536 117.39C142.44 115.537 139.302 115.537 137.206 117.39L34.8666 207.882C33.146 209.405 32.5437 211.834 33.3594 213.984C34.1724 216.134 36.2334 217.557 38.532 217.557H61.4265V303.468C61.4265 306.523 63.9034 309 66.9583 309H118.744V234.628C118.744 231.573 121.221 229.096 124.276 229.096H157.467C160.522 229.096 162.998 231.573 162.998 234.628V309H214.784C217.839 309 220.316 306.523 220.316 303.468V217.557H243.21C243.245 217.557 243.283 217.554 243.321 217.557C246.376 217.557 248.853 215.08 248.853 212.025C248.853 210.051 247.818 208.317 246.262 207.339Z" fill="white" fill-opacity="0.75"/>
</svg>
