<svg width="282" height="407" viewBox="0 0 282 407" fill="none" xmlns="http://www.w3.org/2000/svg">
<rect width="282" height="407" rx="16" transform="matrix(1 0 0 -1 0 407)" fill="#2A2A2F"/>
<rect x="16" y="17" width="250" height="375" rx="8" fill="white"/>
<rect x="16" y="17" width="250" height="375" rx="8" fill="#BE8BFF"/>
<path d="M16 25C16 20.5817 19.5817 17 24 17H72.1927V55.924C72.1927 86.9583 47.0343 112.117 16 112.117V112.117V25Z" fill="#2A2A2F"/>
<path d="M39.7541 56V37.76C39.7541 36.928 39.7541 36.08 39.7541 35.216C39.7861 34.32 39.8021 33.408 39.8021 32.48C38.7461 33.472 37.5621 34.32 36.2501 35.024C34.9701 35.728 33.6421 36.208 32.2661 36.464L31.4981 29.648C32.5861 29.52 33.7701 29.184 35.0501 28.64C36.3621 28.096 37.5781 27.44 38.6981 26.672C39.8181 25.872 40.6341 25.088 41.1461 24.32H47.7221V56H39.7541ZM54.6712 61.24V85H49.1992V74.092L49.3792 66.784H49.3072L43.4392 85H38.4352L32.5672 66.784H32.4952L32.6752 74.092V85H27.1672V61.24H35.9872L39.7312 73.336L41.0632 78.376H41.1352L42.5032 73.372L46.2112 61.24H54.6712Z" fill="white"/>
<path d="M82 392C82 373.775 96.7746 359 115 359H266V392H82V392Z" fill="#2A2A2F"/>
<path d="M121.573 367.908C123.813 367.908 125.558 368.449 126.809 369.532C128.078 370.596 128.713 372.108 128.713 374.068C128.713 376.028 128.078 377.549 126.809 378.632C125.558 379.696 123.813 380.228 121.573 380.228H117.905V386.388H113.089V367.908H121.573ZM120.817 376.616C122.852 376.616 123.869 375.766 123.869 374.068C123.869 372.369 122.852 371.52 120.817 371.52H117.905V376.616H120.817ZM140.612 367.908C142.815 367.908 144.523 368.421 145.736 369.448C146.968 370.474 147.584 371.856 147.584 373.592C147.584 374.973 147.257 376.112 146.604 377.008C145.969 377.885 145.055 378.529 143.86 378.94L148.676 386.388H143.356L139.408 379.64H136.524V386.388H131.792V367.908H140.612ZM139.94 376.224C140.873 376.224 141.573 376.037 142.04 375.664C142.507 375.29 142.74 374.693 142.74 373.872C142.74 372.322 141.807 371.548 139.94 371.548H136.524V376.224H139.94ZM159.193 367.628C161.06 367.628 162.665 368.01 164.009 368.776C165.372 369.522 166.417 370.605 167.145 372.024C167.873 373.442 168.237 375.15 168.237 377.148C168.237 379.145 167.873 380.853 167.145 382.272C166.417 383.69 165.372 384.782 164.009 385.548C162.665 386.294 161.06 386.668 159.193 386.668C157.308 386.668 155.684 386.294 154.321 385.548C152.977 384.782 151.941 383.69 151.213 382.272C150.485 380.853 150.121 379.145 150.121 377.148C150.121 375.15 150.485 373.442 151.213 372.024C151.941 370.605 152.977 369.522 154.321 368.776C155.684 368.01 157.308 367.628 159.193 367.628ZM159.193 371.408C157.849 371.408 156.823 371.893 156.113 372.864C155.404 373.816 155.049 375.244 155.049 377.148C155.049 379.052 155.404 380.489 156.113 381.46C156.823 382.412 157.849 382.888 159.193 382.888C160.519 382.888 161.536 382.412 162.245 381.46C162.955 380.489 163.309 379.052 163.309 377.148C163.309 375.244 162.955 373.816 162.245 372.864C161.536 371.893 160.519 371.408 159.193 371.408ZM180.034 367.908C182.274 367.908 184.019 368.449 185.27 369.532C186.539 370.596 187.174 372.108 187.174 374.068C187.174 376.028 186.539 377.549 185.27 378.632C184.019 379.696 182.274 380.228 180.034 380.228H176.366V386.388H171.55V367.908H180.034ZM179.278 376.616C181.313 376.616 182.33 375.766 182.33 374.068C182.33 372.369 181.313 371.52 179.278 371.52H176.366V376.616H179.278ZM190.253 386.388V367.908H204.645V371.632H195.069V375.384H202.685V378.884H195.069V382.664H205.009V386.388H190.253ZM216.737 367.908C218.94 367.908 220.648 368.421 221.861 369.448C223.093 370.474 223.709 371.856 223.709 373.592C223.709 374.973 223.382 376.112 222.729 377.008C222.094 377.885 221.18 378.529 219.985 378.94L224.801 386.388H219.481L215.533 379.64H212.649V386.388H207.917V367.908H216.737ZM216.065 376.224C216.998 376.224 217.698 376.037 218.165 375.664C218.632 375.29 218.865 374.693 218.865 373.872C218.865 372.322 217.932 371.548 216.065 371.548H212.649V376.224H216.065ZM242.543 367.908V371.632H236.523V386.388H231.707V371.632H225.659V367.908H242.543ZM260.876 367.908L254.352 379.64V386.388H249.536V379.64L243.012 367.908H247.996L250.6 372.976L251.972 376.056L253.372 372.976L255.976 367.908H260.876Z" fill="white"/>
<path d="M101.469 51.28C104.829 51.28 107.447 52.092 109.323 53.716C111.227 55.312 112.179 57.58 112.179 60.52C112.179 63.46 111.227 65.742 109.323 67.366C107.447 68.962 104.829 69.76 101.469 69.76H95.9668V79H88.7428V51.28H101.469ZM100.335 64.342C103.387 64.342 104.913 63.068 104.913 60.52C104.913 57.972 103.387 56.698 100.335 56.698H95.9668V64.342H100.335ZM141.031 51.28V67.702C141.031 75.514 136.901 79.42 128.641 79.42C124.581 79.42 121.501 78.454 119.401 76.522C117.301 74.562 116.251 71.622 116.251 67.702V51.28H123.517V67.828C123.517 71.776 125.225 73.75 128.641 73.75C132.085 73.75 133.807 71.776 133.807 67.828V51.28H141.031ZM159.846 51.28C163.15 51.28 165.712 52.05 167.532 53.59C169.38 55.13 170.304 57.202 170.304 59.806C170.304 61.878 169.814 63.586 168.834 64.93C167.882 66.246 166.51 67.212 164.718 67.828L171.942 79H163.962L158.04 68.878H153.714V79H146.616V51.28H159.846ZM158.838 63.754C160.238 63.754 161.288 63.474 161.988 62.914C162.688 62.354 163.038 61.458 163.038 60.226C163.038 57.902 161.638 56.74 158.838 56.74H153.714V63.754H158.838ZM188.299 51.28C191.659 51.28 194.277 52.092 196.153 53.716C198.057 55.312 199.009 57.58 199.009 60.52C199.009 63.46 198.057 65.742 196.153 67.366C194.277 68.962 191.659 69.76 188.299 69.76H182.797V79H175.573V51.28H188.299ZM187.165 64.342C190.217 64.342 191.743 63.068 191.743 60.52C191.743 57.972 190.217 56.698 187.165 56.698H182.797V64.342H187.165ZM210.852 73.414H224.754V79H203.628V51.28H210.852V73.414ZM228.893 79V51.28H250.481V56.866H236.117V62.494H247.541V67.744H236.117V73.414H251.027V79H228.893Z" fill="#2A2A2F"/>
<path d="M246.262 207.339L144.536 117.39C142.44 115.537 139.302 115.537 137.206 117.39L34.8666 207.882C33.146 209.405 32.5437 211.834 33.3594 213.984C34.1724 216.134 36.2334 217.557 38.532 217.557H61.4265V303.468C61.4265 306.523 63.9034 309 66.9583 309H118.744V234.628C118.744 231.573 121.221 229.096 124.276 229.096H157.467C160.522 229.096 162.998 231.573 162.998 234.628V309H214.784C217.839 309 220.316 306.523 220.316 303.468V217.557H243.21C243.245 217.557 243.283 217.554 243.321 217.557C246.376 217.557 248.853 215.08 248.853 212.025C248.853 210.051 247.818 208.317 246.262 207.339Z" fill="white" fill-opacity="0.75"/>
</svg>
