<svg width="282" height="407" viewBox="0 0 282 407" fill="none" xmlns="http://www.w3.org/2000/svg">
<rect width="282" height="407" rx="16" transform="matrix(1 0 0 -1 0 407)" fill="#2A2A2F"/>
<rect x="16" y="17" width="250" height="375" rx="8" fill="#9B85F5"/>
<path d="M16 25C16 20.5817 19.5817 17 24 17H72.1927V55.924C72.1927 86.9583 47.0343 112.117 16 112.117V25Z" fill="#2A2A2F"/>
<path d="M29.5051 56V50.72C33.1211 48.448 36.0331 46.384 38.2411 44.528C40.4811 42.64 42.1131 40.88 43.1371 39.248C44.1611 37.616 44.6731 36.064 44.6731 34.592C44.6731 33.376 44.3051 32.368 43.5691 31.568C42.8651 30.736 41.8091 30.32 40.4011 30.32C38.8971 30.32 37.7131 30.88 36.8491 32C36.0171 33.088 35.5851 34.688 35.5531 36.8L28.4971 34.64C28.5611 32.304 29.1211 30.336 30.1771 28.736C31.2651 27.104 32.7371 25.888 34.5931 25.088C36.4491 24.256 38.5611 23.84 40.9291 23.84C43.7131 23.84 45.9851 24.352 47.7451 25.376C49.5051 26.368 50.8011 27.648 51.6331 29.216C52.4651 30.752 52.8811 32.352 52.8811 34.016C52.8811 37.088 51.7131 39.888 49.3771 42.416C47.0411 44.912 43.7291 47.392 39.4411 49.856V49.904C40.2411 49.84 41.2491 49.792 42.4651 49.76C43.7131 49.728 44.8331 49.712 45.8251 49.712H53.2651V56H29.5051ZM54.6712 61.24V85H49.1992V74.092L49.3792 66.784H49.3072L43.4392 85H38.4352L32.5672 66.784H32.4952L32.6752 74.092V85H27.1672V61.24H35.9872L39.7312 73.336L41.0632 78.376H41.1352L42.5032 73.372L46.2112 61.24H54.6712Z" fill="white"/>
<path d="M132 392C132 373.775 146.775 359 165 359H266V392H132Z" fill="#2A2A2F"/>
<path d="M156.659 386.388L163.155 367.908H168.923L175.391 386.388H170.435L169.175 382.216H162.791L161.503 386.388H156.659ZM165.199 374.488L163.799 378.94H168.167L166.823 374.516L166.011 371.604H165.955L165.199 374.488ZM193.237 381.096C192.695 383.037 191.697 384.456 190.241 385.352C188.803 386.229 187.105 386.668 185.145 386.668C183.259 386.668 181.635 386.294 180.273 385.548C178.929 384.782 177.893 383.69 177.165 382.272C176.437 380.853 176.073 379.145 176.073 377.148C176.073 375.15 176.437 373.442 177.165 372.024C177.893 370.605 178.929 369.522 180.273 368.776C181.635 368.01 183.25 367.628 185.117 367.628C187.039 367.628 188.719 368.038 190.157 368.86C191.594 369.681 192.546 370.969 193.013 372.724L188.785 374.432C188.523 373.293 188.094 372.509 187.497 372.08C186.918 371.632 186.181 371.408 185.285 371.408C183.941 371.408 182.886 371.893 182.121 372.864C181.374 373.834 181.001 375.262 181.001 377.148C181.001 379.033 181.355 380.461 182.065 381.432C182.793 382.402 183.875 382.888 185.313 382.888C186.209 382.888 186.965 382.645 187.581 382.16C188.215 381.656 188.645 380.89 188.869 379.864L193.237 381.096ZM211.455 367.908V371.632H205.435V386.388H200.619V371.632H194.571V367.908H211.455ZM219.024 367.908V386.388H214.208V367.908H219.024ZM231.41 367.628C233.277 367.628 234.882 368.01 236.226 368.776C237.589 369.522 238.634 370.605 239.362 372.024C240.09 373.442 240.454 375.15 240.454 377.148C240.454 379.145 240.09 380.853 239.362 382.272C238.634 383.69 237.589 384.782 236.226 385.548C234.882 386.294 233.277 386.668 231.41 386.668C229.525 386.668 227.901 386.294 226.538 385.548C225.194 384.782 224.158 383.69 223.43 382.272C222.702 380.853 222.338 379.145 222.338 377.148C222.338 375.15 222.702 373.442 223.43 372.024C224.158 370.605 225.194 369.522 226.538 368.776C227.901 368.01 229.525 367.628 231.41 367.628ZM231.41 371.408C230.066 371.408 229.04 371.893 228.33 372.864C227.621 373.816 227.266 375.244 227.266 377.148C227.266 379.052 227.621 380.489 228.33 381.46C229.04 382.412 230.066 382.888 231.41 382.888C232.736 382.888 233.753 382.412 234.462 381.46C235.172 380.489 235.526 379.052 235.526 377.148C235.526 375.244 235.172 373.816 234.462 372.864C233.753 371.893 232.736 371.408 231.41 371.408ZM260.427 367.908V386.388H255.079L249.339 376.392L247.939 373.648H247.911L248.023 377.064V386.388H243.767V367.908H249.115L254.855 377.904L256.255 380.648H256.283L256.171 377.232V367.908H260.427Z" fill="white"/>
<path d="M120.662 30.28C125.002 30.28 128.32 31.484 130.616 33.892C132.94 36.3 134.102 39.716 134.102 44.14C134.102 48.564 132.94 51.98 130.616 54.388C128.32 56.796 125.002 58 120.662 58H108.902V30.28H120.662ZM119.948 52.54C122.3 52.54 124.008 51.84 125.072 50.44C126.164 49.012 126.71 46.912 126.71 44.14C126.71 41.368 126.164 39.282 125.072 37.882C124.008 36.454 122.3 35.74 119.948 35.74H116.126V52.54H119.948ZM152.278 30.28C155.582 30.28 158.144 31.05 159.964 32.59C161.812 34.13 162.736 36.202 162.736 38.806C162.736 40.878 162.246 42.586 161.266 43.93C160.314 45.246 158.942 46.212 157.15 46.828L164.374 58H156.394L150.472 47.878H146.146V58H139.048V30.28H152.278ZM151.27 42.754C152.67 42.754 153.72 42.474 154.42 41.914C155.12 41.354 155.47 40.458 155.47 39.226C155.47 36.902 154.07 35.74 151.27 35.74H146.146V42.754H151.27ZM165.107 58L174.851 30.28H183.503L193.205 58H185.771L183.881 51.742H174.305L172.373 58H165.107ZM177.917 40.15L175.817 46.828H182.369L180.353 40.192L179.135 35.824H179.051L177.917 40.15ZM199.425 58L191.445 30.28H199.131L203.835 52.162L208.791 30.28H215.343L220.425 52.12L225.045 30.28H232.479L224.457 58H216.603L213.327 44.56L212.067 37.798H211.983L210.765 44.56L207.531 58H199.425ZM141.831 72.28V100H135.447V87.274L135.657 78.748H135.573L128.727 100H122.889L116.043 78.748H115.959L116.169 87.274V100H109.743V72.28H120.033L124.401 86.392L125.955 92.272H126.039L127.635 86.434L131.961 72.28H141.831ZM160.401 71.86C163.201 71.86 165.609 72.434 167.625 73.582C169.669 74.702 171.237 76.326 172.329 78.454C173.421 80.582 173.967 83.144 173.967 86.14C173.967 89.136 173.421 91.698 172.329 93.826C171.237 95.954 169.669 97.592 167.625 98.74C165.609 99.86 163.201 100.42 160.401 100.42C157.573 100.42 155.137 99.86 153.093 98.74C151.077 97.592 149.523 95.954 148.431 93.826C147.339 91.698 146.793 89.136 146.793 86.14C146.793 83.144 147.339 80.582 148.431 78.454C149.523 76.326 151.077 74.702 153.093 73.582C155.137 72.434 157.573 71.86 160.401 71.86ZM160.401 77.53C158.385 77.53 156.845 78.258 155.781 79.714C154.717 81.142 154.185 83.284 154.185 86.14C154.185 88.996 154.717 91.152 155.781 92.608C156.845 94.036 158.385 94.75 160.401 94.75C162.389 94.75 163.915 94.036 164.979 92.608C166.043 91.152 166.575 88.996 166.575 86.14C166.575 83.284 166.043 81.142 164.979 79.714C163.915 78.258 162.389 77.53 160.401 77.53ZM192.166 72.28C195.47 72.28 198.032 73.05 199.852 74.59C201.7 76.13 202.624 78.202 202.624 80.806C202.624 82.878 202.134 84.586 201.154 85.93C200.202 87.246 198.83 88.212 197.038 88.828L204.262 100H196.282L190.36 89.878H186.034V100H178.936V72.28H192.166ZM191.158 84.754C192.558 84.754 193.608 84.474 194.308 83.914C195.008 83.354 195.358 82.458 195.358 81.226C195.358 78.902 193.958 77.74 191.158 77.74H186.034V84.754H191.158ZM207.893 100V72.28H229.481V77.866H215.117V83.494H226.541V88.744H215.117V94.414H230.027V100H207.893Z" fill="#2A2A2F"/>
<path opacity="0.75" d="M220.553 209.037C220.553 204.11 214.035 203.134 210.269 202.341C207.136 201.68 204.003 201.02 200.872 200.359C203.37 196.847 205.867 193.335 208.365 189.823C212.354 184.214 203.993 181.476 199.809 180.555C191.08 178.636 182.354 176.717 173.628 174.795C176.399 170.893 179.172 166.992 181.944 163.091C185.821 157.632 179.373 154.565 174.679 153.534C164.719 151.343 154.76 149.152 144.8 146.961C136.517 145.139 128.235 143.318 119.954 141.496C113.866 140.158 107.457 141.457 103.386 146.244C100.742 149.351 98.0978 152.461 95.4516 155.568C87.503 164.912 79.5545 174.256 71.6059 183.598C69.1297 186.508 66.6554 189.416 64.1812 192.324C63.3466 193.306 62.4417 194.281 62.1349 195.577C61.1401 199.784 65.8639 202.091 69.1766 202.917C78.8665 205.335 88.5564 207.753 98.2464 210.17C96.2861 212.474 94.3278 214.779 92.3675 217.085C90.0437 219.819 86.1232 223.286 89.303 226.966C91.7617 229.812 96.0652 230.349 99.5421 231.215C102.53 231.96 105.521 232.702 108.509 233.447C106.945 235.218 105.38 236.988 103.816 238.757C103.304 239.338 102.761 239.9 102.274 240.502C100.269 242.828 101.035 245.76 101.237 248.572C102.151 261.369 103.054 274.169 103.957 286.968C104.311 291.983 103.607 297.676 109.021 300.026C110.729 300.766 112.646 301.14 114.448 301.607C121.001 303.305 127.553 305 134.104 306.696C141.767 308.68 149.432 310.663 157.093 312.649C166.25 315.024 178.684 319.947 185.258 310.106C193.445 297.85 201.972 285.805 210.333 273.667C213.099 269.65 215.862 265.632 218.635 261.622C220.068 259.55 219.97 255.45 219.97 255.45C219.97 255.45 220.553 208.485 220.553 209.037ZM170.852 257.623C152.272 253.226 133.691 248.826 115.111 244.429C114.147 244.2 113.184 243.973 112.22 243.745C111.947 243.68 110.956 243.418 111.196 243.139C111.925 242.302 112.652 241.464 113.379 240.627C113.809 240.133 117.124 235.607 117.654 235.738C118.74 236.009 119.825 236.279 120.912 236.551C131.594 239.214 142.277 241.88 152.96 244.546C159.108 246.08 167.94 246.694 172.115 240.819C174.056 238.089 175.994 235.358 177.935 232.628C184.168 223.855 190.402 215.08 196.637 206.308C196.721 206.189 197.037 205.575 197.2 205.61C198.534 205.896 199.869 206.179 201.204 206.465C203.237 206.896 205.269 207.33 207.302 207.764C208.371 207.993 209.805 208.089 210.742 208.706C199.259 223.913 187.777 239.123 176.295 254.33C174.822 256.282 173.825 258.325 170.852 257.623ZM115.23 146.75C117.765 146.75 120.573 147.833 123.013 148.374C128.516 149.595 134.022 150.817 139.525 152.038C149.884 154.339 160.244 156.639 170.602 158.939C170.782 158.979 173.547 159.688 173.452 159.786C162.376 175.073 151.299 190.362 140.221 205.65C139.801 206.23 139.379 206.81 138.958 207.393C137.858 208.913 136.13 211.597 134.11 211.597C131.743 211.622 129.097 210.516 126.837 209.957C115.353 207.115 103.869 204.276 92.3851 201.436C87.4835 200.224 82.5799 199.012 77.6782 197.799C77.3284 197.713 72.0085 196.517 72.4815 195.952C77.9265 189.446 83.3695 182.939 88.8144 176.435C94.4294 169.724 100.044 163.014 105.661 156.305C107.571 154.022 109.48 151.739 111.392 149.459C112.545 148.075 113.199 146.75 115.23 146.75ZM107.491 212.476C112.171 213.649 116.854 214.82 121.535 215.99C126.8 217.308 132.067 219.08 137.555 218.103C140.946 217.499 144.278 216.106 146.325 213.225C147.228 211.956 148.128 210.686 149.031 209.416C152.446 204.61 155.86 199.804 159.274 194.998C162.21 190.868 165.145 186.737 168.079 182.605C168.648 181.804 169.216 181.005 169.785 180.203C169.914 180.022 172.39 180.764 172.625 180.815C178 182.009 183.374 183.203 188.749 184.397C191.166 184.935 193.586 185.472 196.003 186.01C196.132 186.039 199.562 186.95 199.506 187.007C188.178 202.644 176.848 218.283 165.519 233.922C163.861 236.209 162.499 239.508 159.069 238.7C156.753 238.286 154.451 237.559 152.166 236.994C140.571 234.127 128.977 231.262 117.384 228.395C111.585 226.962 105.786 225.528 99.9877 224.095C99.5714 223.992 98.4633 223.824 98.4633 223.396C98.4633 222.665 100.14 221.257 100.584 220.728C102.886 217.978 105.188 215.228 107.491 212.476Z" fill="white"/>
</svg>
