<svg width="282" height="407" viewBox="0 0 282 407" fill="none" xmlns="http://www.w3.org/2000/svg">
<rect width="282" height="407" rx="16" transform="matrix(1 0 0 -1 0 407)" fill="#2A2A2F"/>
<rect x="16" y="17" width="250" height="375" rx="8" fill="#FCA06D"/>
<path d="M16 25C16 20.5817 19.5817 17 24 17H72.1927V55.924C72.1927 86.9583 47.0343 112.117 16 112.117V25Z" fill="#2A2A2F"/>
<path d="M29.5051 56V50.72C33.1211 48.448 36.0331 46.384 38.2411 44.528C40.4811 42.64 42.1131 40.88 43.1371 39.248C44.1611 37.616 44.6731 36.064 44.6731 34.592C44.6731 33.376 44.3051 32.368 43.5691 31.568C42.8651 30.736 41.8091 30.32 40.4011 30.32C38.8971 30.32 37.7131 30.88 36.8491 32C36.0171 33.088 35.5851 34.688 35.5531 36.8L28.4971 34.64C28.5611 32.304 29.1211 30.336 30.1771 28.736C31.2651 27.104 32.7371 25.888 34.5931 25.088C36.4491 24.256 38.5611 23.84 40.9291 23.84C43.7131 23.84 45.9851 24.352 47.7451 25.376C49.5051 26.368 50.8011 27.648 51.6331 29.216C52.4651 30.752 52.8811 32.352 52.8811 34.016C52.8811 37.088 51.7131 39.888 49.3771 42.416C47.0411 44.912 43.7291 47.392 39.4411 49.856V49.904C40.2411 49.84 41.2491 49.792 42.4651 49.76C43.7131 49.728 44.8331 49.712 45.8251 49.712H53.2651V56H29.5051ZM54.6712 61.24V85H49.1992V74.092L49.3792 66.784H49.3072L43.4392 85H38.4352L32.5672 66.784H32.4952L32.6752 74.092V85H27.1672V61.24H35.9872L39.7312 73.336L41.0632 78.376H41.1352L42.5032 73.372L46.2112 61.24H54.6712Z" fill="white"/>
<path d="M132 392C132 373.775 146.775 359 165 359H266V392H132Z" fill="#2A2A2F"/>
<path d="M156.659 386.388L163.155 367.908H168.923L175.391 386.388H170.435L169.175 382.216H162.791L161.503 386.388H156.659ZM165.199 374.488L163.799 378.94H168.167L166.823 374.516L166.011 371.604H165.955L165.199 374.488ZM193.237 381.096C192.695 383.037 191.697 384.456 190.241 385.352C188.803 386.229 187.105 386.668 185.145 386.668C183.259 386.668 181.635 386.294 180.273 385.548C178.929 384.782 177.893 383.69 177.165 382.272C176.437 380.853 176.073 379.145 176.073 377.148C176.073 375.15 176.437 373.442 177.165 372.024C177.893 370.605 178.929 369.522 180.273 368.776C181.635 368.01 183.25 367.628 185.117 367.628C187.039 367.628 188.719 368.038 190.157 368.86C191.594 369.681 192.546 370.969 193.013 372.724L188.785 374.432C188.523 373.293 188.094 372.509 187.497 372.08C186.918 371.632 186.181 371.408 185.285 371.408C183.941 371.408 182.886 371.893 182.121 372.864C181.374 373.834 181.001 375.262 181.001 377.148C181.001 379.033 181.355 380.461 182.065 381.432C182.793 382.402 183.875 382.888 185.313 382.888C186.209 382.888 186.965 382.645 187.581 382.16C188.215 381.656 188.645 380.89 188.869 379.864L193.237 381.096ZM211.455 367.908V371.632H205.435V386.388H200.619V371.632H194.571V367.908H211.455ZM219.024 367.908V386.388H214.208V367.908H219.024ZM231.41 367.628C233.277 367.628 234.882 368.01 236.226 368.776C237.589 369.522 238.634 370.605 239.362 372.024C240.09 373.442 240.454 375.15 240.454 377.148C240.454 379.145 240.09 380.853 239.362 382.272C238.634 383.69 237.589 384.782 236.226 385.548C234.882 386.294 233.277 386.668 231.41 386.668C229.525 386.668 227.901 386.294 226.538 385.548C225.194 384.782 224.158 383.69 223.43 382.272C222.702 380.853 222.338 379.145 222.338 377.148C222.338 375.15 222.702 373.442 223.43 372.024C224.158 370.605 225.194 369.522 226.538 368.776C227.901 368.01 229.525 367.628 231.41 367.628ZM231.41 371.408C230.066 371.408 229.04 371.893 228.33 372.864C227.621 373.816 227.266 375.244 227.266 377.148C227.266 379.052 227.621 380.489 228.33 381.46C229.04 382.412 230.066 382.888 231.41 382.888C232.736 382.888 233.753 382.412 234.462 381.46C235.172 380.489 235.526 379.052 235.526 377.148C235.526 375.244 235.172 373.816 234.462 372.864C233.753 371.893 232.736 371.408 231.41 371.408ZM260.427 367.908V386.388H255.079L249.339 376.392L247.939 373.648H247.911L248.023 377.064V386.388H243.767V367.908H249.115L254.855 377.904L256.255 380.648H256.283L256.171 377.232V367.908H260.427Z" fill="white"/>
<path d="M153.704 35.866H139.382V41.746H150.806V47.332H139.382V58H132.158V30.28H153.704V35.866ZM157.875 58V30.28H171.357C174.773 30.28 177.293 30.924 178.917 32.212C180.541 33.5 181.353 35.348 181.353 37.756C181.353 39.324 180.891 40.682 179.967 41.83C179.043 42.978 177.629 43.692 175.725 43.972V44.014C177.853 44.294 179.435 45.036 180.471 46.24C181.535 47.416 182.067 48.844 182.067 50.524C182.067 52.904 181.213 54.752 179.505 56.068C177.825 57.356 175.319 58 171.987 58H157.875ZM164.847 41.62H170.097C172.673 41.62 173.961 40.612 173.961 38.596C173.961 36.58 172.673 35.572 170.097 35.572H164.847V41.62ZM164.847 52.918H170.769C173.373 52.918 174.675 51.882 174.675 49.81C174.675 47.794 173.373 46.786 170.769 46.786H164.847V52.918ZM193.81 30.28V58H186.586V30.28H193.81ZM134.847 72.28C138.151 72.28 140.713 73.05 142.533 74.59C144.381 76.13 145.305 78.202 145.305 80.806C145.305 82.878 144.815 84.586 143.835 85.93C142.883 87.246 141.511 88.212 139.719 88.828L146.943 100H138.963L133.041 89.878H128.715V100H121.617V72.28H134.847ZM133.839 84.754C135.239 84.754 136.289 84.474 136.989 83.914C137.689 83.354 138.039 82.458 138.039 81.226C138.039 78.902 136.639 77.74 133.839 77.74H128.715V84.754H133.839ZM147.676 100L157.42 72.28H166.072L175.774 100H168.34L166.45 93.742H156.874L154.942 100H147.676ZM160.486 82.15L158.386 88.828H164.938L162.922 82.192L161.704 77.824H161.62L160.486 82.15ZM186.222 72.28V100H178.998V72.28H186.222ZM204.129 72.28C208.469 72.28 211.787 73.484 214.083 75.892C216.407 78.3 217.569 81.716 217.569 86.14C217.569 90.564 216.407 93.98 214.083 96.388C211.787 98.796 208.469 100 204.129 100H192.369V72.28H204.129ZM203.415 94.54C205.767 94.54 207.475 93.84 208.539 92.44C209.631 91.012 210.177 88.912 210.177 86.14C210.177 83.368 209.631 81.282 208.539 79.882C207.475 78.454 205.767 77.74 203.415 77.74H199.593V94.54H203.415Z" fill="#2A2A2F"/>
<path d="M227.268 198.207H209.125L194.651 159.066C191.593 150.708 183.439 145 174.469 145H106.992C98.0223 145 90.0719 150.504 86.8101 159.066L72.3362 198.207H54.3967C48.6887 198.207 44 202.896 44 208.604C44 214.312 48.6887 219 54.3967 219H227.472C233.18 219 237.869 214.312 237.869 208.604C237.665 202.692 232.976 198.207 227.268 198.207Z" fill="white" fill-opacity="0.75"/>
<path d="M215.037 256.286C192.612 248.132 166.315 254.044 158.16 256.286C150.21 258.528 144.298 259.548 144.298 259.548C142.056 259.955 139.609 259.955 137.163 259.548C137.163 259.548 131.455 258.732 123.301 256.286C115.35 254.044 88.8487 248.132 66.4244 256.286C59.6971 259.548 56.8431 261.179 61.5318 268.925C66.2205 276.672 66.4244 306.843 95.7799 306.843C125.339 306.843 131.251 287.68 131.251 279.526C131.251 278.507 131.251 277.487 131.455 276.468C132.27 272.391 135.94 269.333 140.221 269.333C144.502 269.333 148.171 272.187 148.987 276.468C149.191 277.283 149.191 278.303 149.191 279.526C149.191 287.884 155.306 306.843 184.662 306.843C214.017 306.843 214.221 276.876 218.91 268.925C224.618 261.179 221.764 259.548 215.037 256.286Z" fill="white" fill-opacity="0.75"/>
</svg>
