<svg width="282" height="407" viewBox="0 0 282 407" fill="none" xmlns="http://www.w3.org/2000/svg">
<rect width="282" height="407" rx="16" transform="matrix(1 0 0 -1 0 407)" fill="#2A2A2F"/>
<rect x="16" y="17" width="250" height="375" rx="8" fill="#6FB2D8"/>
<path d="M16 25C16 20.5817 19.5817 17 24 17H72.1927V55.924C72.1927 86.9583 47.0343 112.117 16 112.117V25Z" fill="#2A2A2F"/>
<path d="M29.5051 56V50.72C33.1211 48.448 36.0331 46.384 38.2411 44.528C40.4811 42.64 42.1131 40.88 43.1371 39.248C44.1611 37.616 44.6731 36.064 44.6731 34.592C44.6731 33.376 44.3051 32.368 43.5691 31.568C42.8651 30.736 41.8091 30.32 40.4011 30.32C38.8971 30.32 37.7131 30.88 36.8491 32C36.0171 33.088 35.5851 34.688 35.5531 36.8L28.4971 34.64C28.5611 32.304 29.1211 30.336 30.1771 28.736C31.2651 27.104 32.7371 25.888 34.5931 25.088C36.4491 24.256 38.5611 23.84 40.9291 23.84C43.7131 23.84 45.9851 24.352 47.7451 25.376C49.5051 26.368 50.8011 27.648 51.6331 29.216C52.4651 30.752 52.8811 32.352 52.8811 34.016C52.8811 37.088 51.7131 39.888 49.3771 42.416C47.0411 44.912 43.7291 47.392 39.4411 49.856V49.904C40.2411 49.84 41.2491 49.792 42.4651 49.76C43.7131 49.728 44.8331 49.712 45.8251 49.712H53.2651V56H29.5051ZM54.6712 61.24V85H49.1992V74.092L49.3792 66.784H49.3072L43.4392 85H38.4352L32.5672 66.784H32.4952L32.6752 74.092V85H27.1672V61.24H35.9872L39.7312 73.336L41.0632 78.376H41.1352L42.5032 73.372L46.2112 61.24H54.6712Z" fill="white"/>
<path d="M132 392C132 373.775 146.775 359 165 359H266V392H132Z" fill="#2A2A2F"/>
<path d="M156.659 386.388L163.155 367.908H168.923L175.391 386.388H170.435L169.175 382.216H162.791L161.503 386.388H156.659ZM165.199 374.488L163.799 378.94H168.167L166.823 374.516L166.011 371.604H165.955L165.199 374.488ZM193.237 381.096C192.695 383.037 191.697 384.456 190.241 385.352C188.803 386.229 187.105 386.668 185.145 386.668C183.259 386.668 181.635 386.294 180.273 385.548C178.929 384.782 177.893 383.69 177.165 382.272C176.437 380.853 176.073 379.145 176.073 377.148C176.073 375.15 176.437 373.442 177.165 372.024C177.893 370.605 178.929 369.522 180.273 368.776C181.635 368.01 183.25 367.628 185.117 367.628C187.039 367.628 188.719 368.038 190.157 368.86C191.594 369.681 192.546 370.969 193.013 372.724L188.785 374.432C188.523 373.293 188.094 372.509 187.497 372.08C186.918 371.632 186.181 371.408 185.285 371.408C183.941 371.408 182.886 371.893 182.121 372.864C181.374 373.834 181.001 375.262 181.001 377.148C181.001 379.033 181.355 380.461 182.065 381.432C182.793 382.402 183.875 382.888 185.313 382.888C186.209 382.888 186.965 382.645 187.581 382.16C188.215 381.656 188.645 380.89 188.869 379.864L193.237 381.096ZM211.455 367.908V371.632H205.435V386.388H200.619V371.632H194.571V367.908H211.455ZM219.024 367.908V386.388H214.208V367.908H219.024ZM231.41 367.628C233.277 367.628 234.882 368.01 236.226 368.776C237.589 369.522 238.634 370.605 239.362 372.024C240.09 373.442 240.454 375.15 240.454 377.148C240.454 379.145 240.09 380.853 239.362 382.272C238.634 383.69 237.589 384.782 236.226 385.548C234.882 386.294 233.277 386.668 231.41 386.668C229.525 386.668 227.901 386.294 226.538 385.548C225.194 384.782 224.158 383.69 223.43 382.272C222.702 380.853 222.338 379.145 222.338 377.148C222.338 375.15 222.702 373.442 223.43 372.024C224.158 370.605 225.194 369.522 226.538 368.776C227.901 368.01 229.525 367.628 231.41 367.628ZM231.41 371.408C230.066 371.408 229.04 371.893 228.33 372.864C227.621 373.816 227.266 375.244 227.266 377.148C227.266 379.052 227.621 380.489 228.33 381.46C229.04 382.412 230.066 382.888 231.41 382.888C232.736 382.888 233.753 382.412 234.462 381.46C235.172 380.489 235.526 379.052 235.526 377.148C235.526 375.244 235.172 373.816 234.462 372.864C233.753 371.893 232.736 371.408 231.41 371.408ZM260.427 367.908V386.388H255.079L249.339 376.392L247.939 373.648H247.911L248.023 377.064V386.388H243.767V367.908H249.115L254.855 377.904L256.255 380.648H256.283L256.171 377.232V367.908H260.427Z" fill="white"/>
<path d="M88.1164 72.68H101.356V78H81.2364V51.6H88.1164V72.68ZM116.28 51.2C118.946 51.2 121.24 51.7467 123.16 52.84C125.106 53.9067 126.6 55.4533 127.64 57.48C128.68 59.5067 129.2 61.9467 129.2 64.8C129.2 67.6533 128.68 70.0933 127.64 72.12C126.6 74.1467 125.106 75.7067 123.16 76.8C121.24 77.8667 118.946 78.4 116.28 78.4C113.586 78.4 111.266 77.8667 109.32 76.8C107.4 75.7067 105.92 74.1467 104.88 72.12C103.84 70.0933 103.32 67.6533 103.32 64.8C103.32 61.9467 103.84 59.5067 104.88 57.48C105.92 55.4533 107.4 53.9067 109.32 52.84C111.266 51.7467 113.586 51.2 116.28 51.2ZM116.28 56.6C114.36 56.6 112.893 57.2933 111.88 58.68C110.866 60.04 110.36 62.08 110.36 64.8C110.36 67.52 110.866 69.5733 111.88 70.96C112.893 72.32 114.36 73 116.28 73C118.173 73 119.626 72.32 120.64 70.96C121.653 69.5733 122.16 67.52 122.16 64.8C122.16 62.08 121.653 60.04 120.64 58.68C119.626 57.2933 118.173 56.6 116.28 56.6ZM155.038 51.6V56.92H146.438V78H139.558V56.92H130.918V51.6H155.038ZM181.171 51.6V56.92H172.571V78H165.691V56.92H157.051V51.6H181.171ZM185.104 78V51.6H205.664V56.92H191.984V62.28H202.864V67.28H191.984V72.68H206.184V78H185.104ZM222.938 51.6C226.085 51.6 228.525 52.3333 230.258 53.8C232.018 55.2667 232.898 57.24 232.898 59.72C232.898 61.6933 232.431 63.32 231.498 64.6C230.591 65.8533 229.285 66.7733 227.578 67.36L234.458 78H226.858L221.218 68.36H217.098V78H210.338V51.6H222.938ZM221.978 63.48C223.311 63.48 224.311 63.2133 224.978 62.68C225.645 62.1467 225.978 61.2933 225.978 60.12C225.978 57.9067 224.645 56.8 221.978 56.8H217.098V63.48H221.978ZM259.275 51.6L249.955 68.36V78H243.075V68.36L233.755 51.6H240.875L244.595 58.84L246.555 63.24L248.555 58.84L252.275 51.6H259.275Z" fill="#2A2A2F"/>
<path d="M191.5 203.563C191.5 193.439 188.524 183.542 182.947 175.124C177.371 166.707 169.445 160.146 160.171 156.271C150.898 152.397 140.694 151.383 130.849 153.359C121.005 155.334 111.962 160.209 104.864 167.367C97.7668 174.526 92.9334 183.647 90.9752 193.576C89.017 203.506 90.022 213.798 93.8631 223.151C97.7043 232.504 104.209 240.499 112.555 246.123C120.901 251.748 130.713 254.75 140.75 254.75C154.205 254.735 167.105 249.337 176.619 239.741C186.133 230.145 191.485 217.134 191.5 203.563ZM95.6389 203.563C95.6389 194.563 98.2846 185.767 103.241 178.284C108.198 170.802 115.244 164.97 123.487 161.526C131.73 158.082 140.8 157.181 149.551 158.937C158.301 160.692 166.339 165.026 172.648 171.389C178.957 177.752 183.254 185.86 184.994 194.686C186.735 203.512 185.842 212.661 182.427 220.975C179.013 229.289 173.231 236.395 165.812 241.394C158.394 246.394 149.672 249.062 140.75 249.062C128.79 249.05 117.323 244.252 108.866 235.722C100.408 227.192 95.6516 215.626 95.6389 203.563Z" fill="white" fill-opacity="0.75"/>
<path d="M164.222 234.105C165.358 235.057 166.821 235.554 168.317 235.495C169.813 235.437 171.231 234.828 172.285 233.791C173.339 232.755 173.951 231.367 173.997 229.908C174.043 228.448 173.521 227.026 172.535 225.928L149.119 200.281L146.645 166.499C146.536 165.039 145.864 163.673 144.764 162.676C143.664 161.679 142.218 161.125 140.716 161.125C139.215 161.125 137.768 161.679 136.669 162.676C135.569 163.673 134.897 165.039 134.787 166.499L132.305 200.354L108.955 225.928C107.974 227.027 107.455 228.448 107.503 229.904C107.551 231.361 108.163 232.746 109.216 233.781C110.268 234.816 111.683 235.424 113.177 235.484C114.671 235.544 116.132 235.05 117.268 234.102L140.738 214.056L164.222 234.105ZM168 229.913L145.1 210.35L145.502 210.007C146.509 209.341 147.36 208.474 147.998 207.464L168.258 229.656L168 229.913ZM143.584 203.056C143.584 203.798 143.282 204.508 142.745 205.032C142.207 205.557 141.478 205.851 140.718 205.851C139.958 205.851 139.228 205.557 138.691 205.032C138.153 204.508 137.851 203.798 137.851 203.056V202.989C137.911 202.291 138.238 201.64 138.767 201.166C139.297 200.691 139.989 200.428 140.708 200.428C141.426 200.428 142.119 200.691 142.648 201.166C143.177 201.64 143.504 202.291 143.564 202.989L143.584 203.056ZM140.936 166.896L142.994 194.985C141.514 194.543 139.933 194.543 138.453 194.985L140.514 166.896C140.523 166.684 140.913 166.678 140.927 166.896H140.936ZM113.241 229.645L133.463 207.508C134.135 208.547 135.032 209.429 136.091 210.093L136.395 210.353L113.499 229.916" fill="white" fill-opacity="0.75"/>
<path d="M127.188 232C126.063 232 124.963 232.334 124.028 232.959C123.092 233.583 122.363 234.472 121.933 235.511C121.502 236.55 121.39 237.694 121.609 238.797C121.829 239.9 122.37 240.914 123.166 241.709C123.961 242.505 124.975 243.046 126.078 243.266C127.181 243.485 128.325 243.373 129.364 242.942C130.403 242.512 131.292 241.783 131.916 240.847C132.541 239.912 132.875 238.812 132.875 237.687C132.875 236.179 132.276 234.732 131.209 233.666C130.143 232.599 128.696 232 127.188 232Z" fill="white" fill-opacity="0.75"/>
<path d="M135.5 226.312C135.5 227.437 135.808 228.537 136.385 229.472C136.962 230.408 137.782 231.137 138.741 231.567C139.7 231.998 140.756 232.11 141.774 231.891C142.793 231.671 143.728 231.13 144.462 230.334C145.197 229.539 145.697 228.525 145.899 227.422C146.102 226.319 145.998 225.175 145.6 224.136C145.203 223.097 144.53 222.208 143.667 221.584C142.803 220.959 141.788 220.625 140.75 220.625C139.358 220.625 138.022 221.224 137.038 222.291C136.053 223.357 135.5 224.804 135.5 226.312Z" fill="white" fill-opacity="0.75"/>
<path d="M165.687 211.875C166.812 211.875 167.912 211.541 168.847 210.916C169.783 210.292 170.512 209.403 170.942 208.364C171.373 207.325 171.485 206.181 171.266 205.078C171.046 203.975 170.505 202.961 169.709 202.166C168.914 201.37 167.9 200.829 166.797 200.609C165.694 200.39 164.55 200.502 163.511 200.933C162.472 201.363 161.583 202.092 160.959 203.028C160.334 203.963 160 205.063 160 206.188C160 207.696 160.599 209.143 161.666 210.209C162.732 211.276 164.179 211.875 165.687 211.875Z" fill="white" fill-opacity="0.75"/>
<path d="M110.125 206.187C110.125 207.312 110.459 208.412 111.084 209.347C111.708 210.283 112.597 211.012 113.636 211.442C114.675 211.873 115.819 211.985 116.922 211.766C118.025 211.546 119.039 211.005 119.834 210.209C120.63 209.414 121.171 208.4 121.391 207.297C121.61 206.194 121.498 205.05 121.067 204.011C120.637 202.972 119.908 202.083 118.972 201.459C118.037 200.834 116.937 200.5 115.812 200.5C114.304 200.5 112.857 201.099 111.791 202.166C110.724 203.232 110.125 204.679 110.125 206.187Z" fill="white" fill-opacity="0.75"/>
<path d="M123.687 178.625C124.812 178.625 125.912 178.291 126.847 177.666C127.783 177.042 128.512 176.153 128.942 175.114C129.373 174.075 129.485 172.931 129.266 171.828C129.046 170.725 128.505 169.711 127.709 168.916C126.914 168.12 125.9 167.579 124.797 167.359C123.694 167.14 122.55 167.252 121.511 167.683C120.472 168.113 119.583 168.842 118.959 169.778C118.334 170.713 118 171.813 118 172.938C118 174.446 118.599 175.893 119.666 176.959C120.732 178.026 122.179 178.625 123.687 178.625Z" fill="white" fill-opacity="0.75"/>
<path d="M174.438 211.875C173.313 211.875 172.213 212.209 171.278 212.834C170.342 213.458 169.613 214.347 169.183 215.386C168.752 216.425 168.64 217.569 168.859 218.672C169.079 219.775 169.62 220.789 170.416 221.584C171.211 222.38 172.225 222.921 173.328 223.141C174.431 223.36 175.575 223.248 176.614 222.817C177.653 222.387 178.542 221.658 179.166 220.722C179.791 219.787 180.125 218.687 180.125 217.562C180.125 216.054 179.526 214.607 178.459 213.541C177.393 212.474 175.946 211.875 174.438 211.875Z" fill="white" fill-opacity="0.75"/>
<path d="M198.7 299.227L170.215 257.722C182.353 251.154 191.957 240.718 197.506 228.067C203.056 215.415 204.233 201.27 200.851 187.872C197.47 174.475 189.724 162.59 178.839 154.1C167.954 145.61 154.552 141 140.757 141C126.961 141 113.56 145.61 102.675 154.1C91.79 162.59 84.0436 174.475 80.6623 187.872C77.281 201.27 78.4581 215.415 84.0072 228.067C89.5563 240.718 99.1603 251.154 111.298 257.722L82.8133 299.227C80.7577 299.634 78.9264 300.791 77.6745 302.474C76.4226 304.158 75.8394 306.246 76.0381 308.336C76.2367 310.425 77.2031 312.366 78.7496 313.783C80.2962 315.199 82.3127 315.989 84.408 316H197.108C199.201 315.985 201.214 315.193 202.757 313.777C204.3 312.361 205.264 310.422 205.462 308.335C205.66 306.248 205.078 304.162 203.829 302.48C202.58 300.798 200.753 299.64 198.7 299.23V299.227ZM191.755 299.066H184.503L159.382 262.328C161.326 261.713 163.226 261.006 165.082 260.208L191.755 299.066ZM129.488 264.148V267.671L121.653 299.066H103.849L127.933 263.849C128.44 263.959 128.964 264.052 129.488 264.148ZM135.123 264.927C136.98 265.097 138.856 265.195 140.758 265.195C142.66 265.195 144.534 265.097 146.393 264.927V268.021C146.393 269.518 145.8 270.953 144.743 272.012C143.686 273.07 142.253 273.665 140.758 273.665C139.264 273.665 137.83 273.07 136.774 272.012C135.717 270.953 135.123 269.518 135.123 268.021V264.927ZM133.151 276.29C135.213 278.225 137.933 279.302 140.758 279.302C143.584 279.302 146.304 278.225 148.366 276.29L154.054 299.066H127.46L133.151 276.29ZM159.861 299.066L152.028 267.668V264.148C152.552 264.052 153.076 263.959 153.595 263.849L177.668 299.066H159.861ZM84.408 203.107C84.408 191.943 87.7129 181.03 93.9047 171.747C100.097 162.465 108.897 155.23 119.194 150.958C129.491 146.685 140.821 145.567 151.752 147.745C162.683 149.923 172.723 155.299 180.604 163.194C188.485 171.088 193.851 181.146 196.026 192.095C198.2 203.045 197.084 214.394 192.819 224.708C188.554 235.023 181.332 243.838 172.065 250.041C162.798 256.243 151.903 259.554 140.758 259.554C125.818 259.537 111.495 253.585 100.931 243.003C90.3666 232.42 84.4244 218.073 84.408 203.107ZM122.132 262.328L97.0079 299.066H89.7613L116.429 260.208C118.287 261.004 120.188 261.711 122.132 262.328ZM197.108 310.355H84.408C83.6608 310.355 82.9441 310.058 82.4157 309.529C81.8873 308.999 81.5905 308.282 81.5905 307.533C81.5905 306.785 81.8873 306.067 82.4157 305.537C82.9441 305.008 83.6608 304.711 84.408 304.711H197.108C197.856 304.711 198.572 305.008 199.101 305.537C199.629 306.067 199.926 306.785 199.926 307.533C199.926 308.282 199.629 308.999 199.101 309.529C198.572 310.058 197.856 310.355 197.108 310.355Z" fill="white" fill-opacity="0.75"/>
</svg>
