<svg width="282" height="407" viewBox="0 0 282 407" fill="none" xmlns="http://www.w3.org/2000/svg">
<rect width="282" height="407" rx="16" transform="matrix(1 0 0 -1 0 407)" fill="#2A2A2F"/>
<rect x="16" y="17" width="250" height="375" rx="8" fill="#FF8787"/>
<path d="M16 25C16 20.5817 19.5817 17 24 17H72.1927V55.924C72.1927 86.9583 47.0343 112.117 16 112.117V25Z" fill="#2A2A2F"/>
<path d="M42.9264 56V49.04H27.4704V43.856C27.7584 43.376 28.1264 42.768 28.5744 42.032C29.0544 41.264 29.6144 40.4 30.2544 39.44L40.5744 24.32H50.2224V43.376H55.0704V49.04H50.2224V56H42.9264ZM34.0944 43.376H43.0224V33.776C43.0224 33.136 43.0384 32.48 43.0704 31.808C43.1024 31.136 43.1344 30.432 43.1664 29.696H43.0704C42.7504 30.368 42.3664 31.072 41.9184 31.808C41.5024 32.512 41.1024 33.152 40.7184 33.728L35.1024 41.936C34.7504 42.48 34.4144 42.96 34.0944 43.376ZM54.6712 61.24V85H49.1992V74.092L49.3792 66.784H49.3072L43.4392 85H38.4352L32.5672 66.784H32.4952L32.6752 74.092V85H27.1672V61.24H35.9872L39.7312 73.336L41.0632 78.376H41.1352L42.5032 73.372L46.2112 61.24H54.6712Z" fill="white"/>
<path d="M132 392C132 373.775 146.775 359 165 359H266V392H132Z" fill="#2A2A2F"/>
<path d="M156.659 386.388L163.155 367.908H168.923L175.391 386.388H170.435L169.175 382.216H162.791L161.503 386.388H156.659ZM165.199 374.488L163.799 378.94H168.167L166.823 374.516L166.011 371.604H165.955L165.199 374.488ZM193.237 381.096C192.695 383.037 191.697 384.456 190.241 385.352C188.803 386.229 187.105 386.668 185.145 386.668C183.259 386.668 181.635 386.294 180.273 385.548C178.929 384.782 177.893 383.69 177.165 382.272C176.437 380.853 176.073 379.145 176.073 377.148C176.073 375.15 176.437 373.442 177.165 372.024C177.893 370.605 178.929 369.522 180.273 368.776C181.635 368.01 183.25 367.628 185.117 367.628C187.039 367.628 188.719 368.038 190.157 368.86C191.594 369.681 192.546 370.969 193.013 372.724L188.785 374.432C188.523 373.293 188.094 372.509 187.497 372.08C186.918 371.632 186.181 371.408 185.285 371.408C183.941 371.408 182.886 371.893 182.121 372.864C181.374 373.834 181.001 375.262 181.001 377.148C181.001 379.033 181.355 380.461 182.065 381.432C182.793 382.402 183.875 382.888 185.313 382.888C186.209 382.888 186.965 382.645 187.581 382.16C188.215 381.656 188.645 380.89 188.869 379.864L193.237 381.096ZM211.455 367.908V371.632H205.435V386.388H200.619V371.632H194.571V367.908H211.455ZM219.024 367.908V386.388H214.208V367.908H219.024ZM231.41 367.628C233.277 367.628 234.882 368.01 236.226 368.776C237.589 369.522 238.634 370.605 239.362 372.024C240.09 373.442 240.454 375.15 240.454 377.148C240.454 379.145 240.09 380.853 239.362 382.272C238.634 383.69 237.589 384.782 236.226 385.548C234.882 386.294 233.277 386.668 231.41 386.668C229.525 386.668 227.901 386.294 226.538 385.548C225.194 384.782 224.158 383.69 223.43 382.272C222.702 380.853 222.338 379.145 222.338 377.148C222.338 375.15 222.702 373.442 223.43 372.024C224.158 370.605 225.194 369.522 226.538 368.776C227.901 368.01 229.525 367.628 231.41 367.628ZM231.41 371.408C230.066 371.408 229.04 371.893 228.33 372.864C227.621 373.816 227.266 375.244 227.266 377.148C227.266 379.052 227.621 380.489 228.33 381.46C229.04 382.412 230.066 382.888 231.41 382.888C232.736 382.888 233.753 382.412 234.462 381.46C235.172 380.489 235.526 379.052 235.526 377.148C235.526 375.244 235.172 373.816 234.462 372.864C233.753 371.893 232.736 371.408 231.41 371.408ZM260.427 367.908V386.388H255.079L249.339 376.392L247.939 373.648H247.911L248.023 377.064V386.388H243.767V367.908H249.115L254.855 377.904L256.255 380.648H256.283L256.171 377.232V367.908H260.427Z" fill="white"/>
<path d="M145.992 51.28V79H137.97L129.36 64.006L127.26 59.89H127.218L127.386 65.014V79H121.002V51.28H129.024L137.634 66.274L139.734 70.39H139.776L139.608 65.266V51.28H145.992ZM152.132 79V51.28H173.72V56.866H159.356V62.494H170.78V67.744H159.356V73.414H174.266V79H152.132ZM185.853 51.28V79H178.629V51.28H185.853ZM216.99 51.28V79H208.968L200.358 64.006L198.258 59.89H198.216L198.384 65.014V79H192V51.28H200.022L208.632 66.274L210.732 70.39H210.774L210.606 65.266V51.28H216.99Z" fill="#2A2A2F"/>
<g opacity="0.75">
<path d="M178.179 190.877L178.166 190.863L178.151 190.849C175.428 188.125 170.905 188.125 168.182 190.849L140.502 218.528L113.015 190.851L113.013 190.849C110.289 188.125 105.767 188.125 103.043 190.849C100.319 193.572 100.319 198.093 103.041 200.817C103.042 200.817 103.042 200.818 103.043 200.818L130.53 228.495L102.851 255.985L102.848 255.987C100.124 258.711 100.124 263.233 102.848 265.957C104.215 267.324 106.03 268 107.833 268C109.636 268 111.45 267.324 112.817 265.959C112.817 265.958 112.818 265.958 112.818 265.957L140.495 238.47L167.985 266.149L167.987 266.152C169.354 267.518 171.169 268.195 172.972 268.195C174.775 268.195 176.59 267.518 177.957 266.152C180.68 263.428 180.681 258.907 177.958 256.183C177.958 256.183 177.957 256.182 177.957 256.182L150.47 228.505L178.149 201.015L178.164 201L178.179 200.984C180.866 198.073 180.866 193.788 178.179 190.877Z" fill="white" stroke="white" stroke-width="2"/>
<path d="M140.5 140C91.531 140 52 179.531 52 228.5C52 277.469 91.531 317 140.5 317C189.469 317 229 277.469 229 228.5C229 179.531 189.469 140 140.5 140ZM193.071 281.071C179.065 295.076 160.459 302.75 140.5 302.75C120.734 302.75 101.934 295.075 87.9293 281.071C73.924 267.065 66.25 248.459 66.25 228.5C66.25 208.734 73.925 189.934 87.9293 175.929C101.935 161.924 120.541 154.25 140.5 154.25C160.266 154.25 179.066 161.925 193.071 175.929C207.076 189.935 214.75 208.541 214.75 228.5C214.75 248.266 207.075 267.066 193.071 281.071Z" fill="white" stroke="white" stroke-width="2"/>
</g>
</svg>
