<svg width="282" height="407" viewBox="0 0 282 407" fill="none" xmlns="http://www.w3.org/2000/svg">
<rect width="282" height="407" rx="16" transform="matrix(1 0 0 -1 0 407)" fill="#2A2A2F"/>
<rect x="16" y="17" width="250" height="375" rx="8" fill="#F385F5"/>
<path d="M16 25C16 20.5817 19.5817 17 24 17H72.1927V55.924C72.1927 86.9583 47.0343 112.117 16 112.117V25Z" fill="#2A2A2F"/>
<path d="M29.5051 56V50.72C33.1211 48.448 36.0331 46.384 38.2411 44.528C40.4811 42.64 42.1131 40.88 43.1371 39.248C44.1611 37.616 44.6731 36.064 44.6731 34.592C44.6731 33.376 44.3051 32.368 43.5691 31.568C42.8651 30.736 41.8091 30.32 40.4011 30.32C38.8971 30.32 37.7131 30.88 36.8491 32C36.0171 33.088 35.5851 34.688 35.5531 36.8L28.4971 34.64C28.5611 32.304 29.1211 30.336 30.1771 28.736C31.2651 27.104 32.7371 25.888 34.5931 25.088C36.4491 24.256 38.5611 23.84 40.9291 23.84C43.7131 23.84 45.9851 24.352 47.7451 25.376C49.5051 26.368 50.8011 27.648 51.6331 29.216C52.4651 30.752 52.8811 32.352 52.8811 34.016C52.8811 37.088 51.7131 39.888 49.3771 42.416C47.0411 44.912 43.7291 47.392 39.4411 49.856V49.904C40.2411 49.84 41.2491 49.792 42.4651 49.76C43.7131 49.728 44.8331 49.712 45.8251 49.712H53.2651V56H29.5051ZM54.6712 61.24V85H49.1992V74.092L49.3792 66.784H49.3072L43.4392 85H38.4352L32.5672 66.784H32.4952L32.6752 74.092V85H27.1672V61.24H35.9872L39.7312 73.336L41.0632 78.376H41.1352L42.5032 73.372L46.2112 61.24H54.6712Z" fill="white"/>
<path d="M132 392C132 373.775 146.775 359 165 359H266V392H132Z" fill="#2A2A2F"/>
<path d="M156.659 386.388L163.155 367.908H168.923L175.391 386.388H170.435L169.175 382.216H162.791L161.503 386.388H156.659ZM165.199 374.488L163.799 378.94H168.167L166.823 374.516L166.011 371.604H165.955L165.199 374.488ZM193.237 381.096C192.695 383.037 191.697 384.456 190.241 385.352C188.803 386.229 187.105 386.668 185.145 386.668C183.259 386.668 181.635 386.294 180.273 385.548C178.929 384.782 177.893 383.69 177.165 382.272C176.437 380.853 176.073 379.145 176.073 377.148C176.073 375.15 176.437 373.442 177.165 372.024C177.893 370.605 178.929 369.522 180.273 368.776C181.635 368.01 183.25 367.628 185.117 367.628C187.039 367.628 188.719 368.038 190.157 368.86C191.594 369.681 192.546 370.969 193.013 372.724L188.785 374.432C188.523 373.293 188.094 372.509 187.497 372.08C186.918 371.632 186.181 371.408 185.285 371.408C183.941 371.408 182.886 371.893 182.121 372.864C181.374 373.834 181.001 375.262 181.001 377.148C181.001 379.033 181.355 380.461 182.065 381.432C182.793 382.402 183.875 382.888 185.313 382.888C186.209 382.888 186.965 382.645 187.581 382.16C188.215 381.656 188.645 380.89 188.869 379.864L193.237 381.096ZM211.455 367.908V371.632H205.435V386.388H200.619V371.632H194.571V367.908H211.455ZM219.024 367.908V386.388H214.208V367.908H219.024ZM231.41 367.628C233.277 367.628 234.882 368.01 236.226 368.776C237.589 369.522 238.634 370.605 239.362 372.024C240.09 373.442 240.454 375.15 240.454 377.148C240.454 379.145 240.09 380.853 239.362 382.272C238.634 383.69 237.589 384.782 236.226 385.548C234.882 386.294 233.277 386.668 231.41 386.668C229.525 386.668 227.901 386.294 226.538 385.548C225.194 384.782 224.158 383.69 223.43 382.272C222.702 380.853 222.338 379.145 222.338 377.148C222.338 375.15 222.702 373.442 223.43 372.024C224.158 370.605 225.194 369.522 226.538 368.776C227.901 368.01 229.525 367.628 231.41 367.628ZM231.41 371.408C230.066 371.408 229.04 371.893 228.33 372.864C227.621 373.816 227.266 375.244 227.266 377.148C227.266 379.052 227.621 380.489 228.33 381.46C229.04 382.412 230.066 382.888 231.41 382.888C232.736 382.888 233.753 382.412 234.462 381.46C235.172 380.489 235.526 379.052 235.526 377.148C235.526 375.244 235.172 373.816 234.462 372.864C233.753 371.893 232.736 371.408 231.41 371.408ZM260.427 367.908V386.388H255.079L249.339 376.392L247.939 373.648H247.911L248.023 377.064V386.388H243.767V367.908H249.115L254.855 377.904L256.255 380.648H256.283L256.171 377.232V367.908H260.427Z" fill="white"/>
<path d="M146.234 29.86C148.81 29.86 151.078 30.266 153.038 31.078C155.026 31.862 156.748 33.024 158.204 34.564L154.718 39.226C153.514 37.966 152.212 37.028 150.812 36.412C149.44 35.768 147.872 35.446 146.108 35.446C144.568 35.446 143.462 35.698 142.79 36.202C142.118 36.706 141.782 37.322 141.782 38.05C141.782 38.638 142.048 39.142 142.58 39.562C143.14 39.954 144.036 40.29 145.268 40.57L149.93 41.62C152.702 42.264 154.732 43.202 156.02 44.434C157.308 45.666 157.952 47.304 157.952 49.348C157.952 51.308 157.448 52.974 156.44 54.346C155.432 55.69 154.046 56.712 152.282 57.412C150.518 58.084 148.502 58.42 146.234 58.42C143.434 58.42 140.872 57.972 138.548 57.076C136.224 56.152 134.376 54.948 133.004 53.464L136.49 48.634C137.526 49.838 138.926 50.846 140.69 51.658C142.454 52.442 144.274 52.834 146.15 52.834C149.062 52.834 150.518 51.98 150.518 50.272C150.518 49.684 150.294 49.194 149.846 48.802C149.426 48.382 148.642 48.032 147.494 47.752L142.37 46.618C140.802 46.282 139.402 45.806 138.17 45.19C136.966 44.574 136.014 43.762 135.314 42.754C134.614 41.718 134.264 40.43 134.264 38.89C134.264 37.154 134.74 35.614 135.692 34.27C136.644 32.898 138.016 31.82 139.808 31.036C141.6 30.252 143.742 29.86 146.234 29.86ZM169.692 52.414H183.594V58H162.468V30.28H169.692V52.414ZM206.469 30.28L196.683 47.878V58H189.459V47.878L179.673 30.28H187.149L191.055 37.882L193.113 42.502L195.213 37.882L199.119 30.28H206.469ZM128.66 72.28C133 72.28 136.318 73.484 138.614 75.892C140.938 78.3 142.1 81.716 142.1 86.14C142.1 90.564 140.938 93.98 138.614 96.388C136.318 98.796 133 100 128.66 100H116.9V72.28H128.66ZM127.946 94.54C130.298 94.54 132.006 93.84 133.07 92.44C134.162 91.012 134.708 88.912 134.708 86.14C134.708 83.368 134.162 81.282 133.07 79.882C132.006 78.454 130.298 77.74 127.946 77.74H124.124V94.54H127.946ZM147.046 100V72.28H168.634V77.866H154.27V83.494H165.694V88.744H154.27V94.414H169.18V100H147.046ZM170.645 100L180.389 72.28H189.041L198.743 100H191.309L189.419 93.742H179.843L177.911 100H170.645ZM183.455 82.15L181.355 88.828H187.907L185.891 82.192L184.673 77.824H184.589L183.455 82.15ZM209.19 94.414H223.092V100H201.966V72.28H209.19V94.414Z" fill="#2A2A2F"/>
<g opacity="0.75">
<mask id="path-8-outside-1" maskUnits="userSpaceOnUse" x="35" y="139" width="212" height="179" fill="black">
<rect fill="white" x="35" y="139" width="212" height="179"/>
<path d="M244.998 178.345C244.977 178.004 244.891 177.673 244.746 177.372C244.602 177.071 244.401 176.809 244.159 176.602C243.916 176.396 243.637 176.25 243.34 176.175C243.044 176.099 242.736 176.096 242.438 176.165C242.31 176.165 228.59 179.304 224.686 171.518C222.369 167.344 218.771 164.268 214.572 162.869C213.1 153.838 201.919 142.866 200.554 141.572C200.27 141.301 199.928 141.117 199.562 141.041C199.196 140.964 198.818 140.996 198.466 141.134C198.114 141.272 197.801 141.512 197.557 141.828C197.313 142.144 197.147 142.527 197.076 142.937L196.201 147.92C194.942 146.459 194.068 145.525 193.683 145.07C193.382 144.747 193.002 144.53 192.592 144.446C192.182 144.363 191.759 144.416 191.375 144.6C190.991 144.783 190.664 145.089 190.433 145.479C190.203 145.869 190.079 146.326 190.078 146.795V164.834C183.092 171.81 177.425 180.291 173.414 189.773C158.947 193.534 103.003 206.782 102.448 206.926C101.893 207.069 56.4676 220.461 41.6173 272.064C41.5082 272.304 41.4361 272.563 41.4039 272.83C38.755 282.399 37.2764 292.328 37.0085 302.345C36.9615 302.933 37.1098 303.52 37.4248 303.993C37.7399 304.466 38.1995 304.792 38.7155 304.908C39.4891 304.988 40.2676 304.988 41.0412 304.908C50.92 304.908 65.5996 293.505 78.0816 277.669C78.0019 278.039 78.0019 278.425 78.0816 278.795L83.5224 313.988C83.6133 314.546 83.8776 315.049 84.2684 315.409C84.6591 315.769 85.1508 315.961 85.6561 315.952H101.872C102.438 315.952 102.981 315.7 103.381 315.25C103.781 314.801 104.006 314.192 104.006 313.556C103.794 310.918 103.001 308.379 101.697 306.171C100.393 303.963 98.62 302.154 96.5378 300.907C94.5536 295.845 93.0517 290.561 92.0571 285.144C93.0386 284.162 94.3614 282.748 95.5563 281.407C98.0624 288.071 100.912 294.567 104.091 300.859C106.694 305.243 106.545 313.437 106.545 313.508C106.545 314.144 106.769 314.753 107.17 315.202C107.57 315.652 108.112 315.904 108.678 315.904H125.278C125.844 315.904 126.387 315.652 126.787 315.202C127.187 314.753 127.412 314.144 127.412 313.508C127.72 310.537 127.038 307.542 125.498 305.101C123.958 302.66 121.668 300.944 119.069 300.284L110.961 285.144C111.605 283.052 112.487 281.063 113.586 279.227C123.682 274.751 132.37 267.014 138.55 256.995C145.953 257.953 154.275 258.384 158.201 258.552C157.518 267.871 155.598 296.883 157.155 303.279C158.883 310.466 160.185 314.275 160.228 314.443C160.38 314.901 160.654 315.296 161.013 315.575C161.371 315.853 161.797 316.001 162.233 316H176.678C177.196 316.006 177.698 315.8 178.09 315.421C178.483 315.042 178.739 314.515 178.812 313.94C179.195 311.246 178.759 308.486 177.574 306.105C176.39 303.723 174.526 301.859 172.283 300.811C172.169 296.025 172.455 291.236 173.136 286.509L180.049 314.203C180.178 314.721 180.459 315.176 180.846 315.493C181.233 315.81 181.704 315.972 182.183 315.952H199.252C199.818 315.952 200.361 315.7 200.761 315.25C201.161 314.801 201.386 314.192 201.386 313.556C201.412 311.128 200.801 308.745 199.629 306.704C198.456 304.663 196.774 303.055 194.793 302.081C191.379 300.548 190.014 295.014 188.904 290.582C188.605 289.408 188.349 288.306 188.051 287.348C187.09 284.09 188.605 269.74 189.822 261.211C196.415 244.945 215.788 202.997 228.227 199.667C236.335 197.487 240.56 192.863 242.758 188.455C242.896 188.252 243.004 188.026 243.078 187.784C244.382 184.856 245.041 181.619 244.998 178.345ZM239.877 183.903C239.421 183.18 239.089 182.367 238.896 181.508L240.517 181.34C240.37 182.213 240.156 183.071 239.877 183.903ZM200.511 147.968C204.254 151.806 207.373 156.345 209.729 161.384C208.318 161.096 206.893 160.904 205.461 160.809C203.74 157.788 201.814 154.921 199.7 152.233L200.511 147.968ZM43.9643 280.113L45.1165 283.107C45.3366 283.646 45.7267 284.074 46.2114 284.309C46.6961 284.543 47.241 284.567 47.7409 284.377L56.8303 280.951V287.18C56.8172 287.731 56.9734 288.269 57.2726 288.706C57.5718 289.142 57.9958 289.449 58.4732 289.576L60.3082 290.055C53.0537 296.284 46.226 300.117 41.3612 300.117C41.6805 293.373 42.5518 286.677 43.9643 280.113ZM111.409 275.322C111.015 275.51 110.681 275.827 110.449 276.232C108.579 278.981 107.281 282.165 106.651 285.551C106.609 286.062 106.714 286.574 106.95 287.012L115.997 303.782C116.175 304.104 116.419 304.374 116.708 304.57C116.997 304.766 117.324 304.882 117.661 304.908C119.068 305.101 120.378 305.812 121.385 306.931C122.393 308.049 123.042 309.512 123.23 311.089H110.855C110.781 306.539 109.711 302.08 107.739 298.104C104.575 291.828 101.726 285.357 99.2048 278.723C106.651 276.663 123.251 268.901 129.076 255.126C130.42 255.51 131.999 255.845 133.685 256.132C127.929 264.653 120.234 271.274 111.409 275.298V275.322ZM193.129 306.609C194.002 307.006 194.781 307.627 195.403 308.421C196.025 309.215 196.474 310.162 196.713 311.185H183.698L174.886 275.897C176.294 269.428 178.257 263.631 180.86 261.187C182.613 259.401 184.636 257.981 186.834 256.995L185.725 259.702C185.645 259.892 185.587 260.094 185.554 260.301C184.999 264.158 182.311 283.658 183.911 289.049C184.189 289.959 184.423 290.989 184.701 292.067C185.938 297.098 187.773 304.189 193.129 306.609ZM227.054 195.067C214.252 198.517 198.186 231.002 190.312 248.802C189.314 250.351 187.89 251.487 186.258 252.036C183.214 253.192 180.426 255.072 178.086 257.546C174.907 260.54 172.518 267.128 170.853 274.315C170.551 274.804 170.422 275.402 170.491 275.992C167.994 287.731 167.397 300.787 168.357 303.638C168.483 303.985 168.681 304.293 168.933 304.539C169.185 304.784 169.484 304.96 169.808 305.052C171.084 305.378 172.231 306.163 173.074 307.287C173.917 308.411 174.411 309.813 174.48 311.28H163.748C163.236 309.556 162.34 306.489 161.273 302.105C160.078 297.314 161.444 272.159 162.639 256.588C162.665 256.255 162.63 255.92 162.535 255.604C162.44 255.288 162.287 254.998 162.086 254.752C161.885 254.507 161.641 254.311 161.368 254.177C161.096 254.043 160.802 253.975 160.505 253.976C160.334 253.976 147.49 253.569 137.568 252.18C134.534 251.842 131.535 251.192 128.607 250.239C128.08 250.038 127.504 250.076 127.002 250.344C126.5 250.613 126.111 251.091 125.918 251.676C120.819 267.104 98.8848 274.819 96.6444 274.842H96.111C95.9222 274.855 95.7356 274.895 95.5563 274.962H95.3856C95.1724 275.077 94.9777 275.231 94.8095 275.417L94.6175 275.681C94.548 275.764 94.4838 275.852 94.4254 275.944C92.5638 278.331 90.5454 280.557 88.3872 282.604C88.105 282.883 87.8933 283.24 87.7734 283.639C87.6536 284.039 87.6297 284.467 87.7044 284.88C87.7044 285.431 90.1794 298.416 93.1452 304.046C93.3538 304.436 93.6573 304.752 94.02 304.956C96.4359 306.257 98.3093 308.558 99.2475 311.376H87.5124L82.3916 279.25L89.6247 270.698C89.7813 270.515 89.911 270.304 90.0088 270.075C90.6915 268.494 95.6416 256.612 96.0257 247.101C96.1413 245.142 95.9683 243.175 95.5136 241.279C93.7853 234.739 98.2234 223.432 100.08 219.718C100.363 219.162 100.437 218.503 100.287 217.885C100.137 217.268 99.7747 216.742 99.2795 216.424C99.0343 216.267 98.764 216.165 98.4839 216.126C98.2037 216.086 97.9193 216.108 97.6469 216.191C97.0967 216.36 96.6287 216.767 96.3457 217.323C96.047 217.946 88.8352 232.847 91.417 242.645C91.703 243.879 91.8182 245.156 91.7584 246.43C85.0899 261.579 75.8149 275.095 64.4688 286.198L61.0976 285.312V277.645C61.0985 277.264 61.0184 276.889 60.8641 276.55C60.7098 276.21 60.4857 275.917 60.2103 275.695C59.9349 275.472 59.6163 275.327 59.2808 275.27C58.9453 275.214 58.6026 275.248 58.2812 275.37L48.253 279.155L45.7566 272.998C59.7321 224.534 101.381 212.148 103.365 211.597C103.963 211.453 162.831 197.511 175.419 194.157C175.753 194.069 176.062 193.893 176.322 193.643C176.582 193.393 176.785 193.076 176.913 192.719C180.278 184.293 185.084 176.69 191.059 170.344C191.388 170.593 191.772 170.734 192.169 170.751C192.734 170.751 193.277 170.499 193.677 170.049C194.077 169.6 194.302 168.991 194.302 168.355V152.688C198.292 157.479 203.37 164.522 204.01 168.739C204.092 169.306 204.353 169.821 204.744 170.19C205.136 170.559 205.633 170.758 206.144 170.751H206.507C207.064 170.645 207.561 170.296 207.889 169.78C208.217 169.263 208.349 168.622 208.256 167.996C208.149 167.32 207.992 166.655 207.787 166.008C211.82 166.631 218.242 168.403 220.973 173.913C223.704 179.423 229.508 181.268 234.543 181.579C234.882 184.141 235.997 186.493 237.701 188.239C234.939 191.798 231.187 194.204 227.054 195.067ZM80.9193 274.124C83.3517 270.698 85.6561 267.224 87.7897 263.631C87.2136 265.236 86.6802 266.625 86.2535 267.655L80.9193 274.124Z"/>
</mask>
<path d="M244.998 178.345C244.977 178.004 244.891 177.673 244.746 177.372C244.602 177.071 244.401 176.809 244.159 176.602C243.916 176.396 243.637 176.25 243.34 176.175C243.044 176.099 242.736 176.096 242.438 176.165C242.31 176.165 228.59 179.304 224.686 171.518C222.369 167.344 218.771 164.268 214.572 162.869C213.1 153.838 201.919 142.866 200.554 141.572C200.27 141.301 199.928 141.117 199.562 141.041C199.196 140.964 198.818 140.996 198.466 141.134C198.114 141.272 197.801 141.512 197.557 141.828C197.313 142.144 197.147 142.527 197.076 142.937L196.201 147.92C194.942 146.459 194.068 145.525 193.683 145.07C193.382 144.747 193.002 144.53 192.592 144.446C192.182 144.363 191.759 144.416 191.375 144.6C190.991 144.783 190.664 145.089 190.433 145.479C190.203 145.869 190.079 146.326 190.078 146.795V164.834C183.092 171.81 177.425 180.291 173.414 189.773C158.947 193.534 103.003 206.782 102.448 206.926C101.893 207.069 56.4676 220.461 41.6173 272.064C41.5082 272.304 41.4361 272.563 41.4039 272.83C38.755 282.399 37.2764 292.328 37.0085 302.345C36.9615 302.933 37.1098 303.52 37.4248 303.993C37.7399 304.466 38.1995 304.792 38.7155 304.908C39.4891 304.988 40.2676 304.988 41.0412 304.908C50.92 304.908 65.5996 293.505 78.0816 277.669C78.0019 278.039 78.0019 278.425 78.0816 278.795L83.5224 313.988C83.6133 314.546 83.8776 315.049 84.2684 315.409C84.6591 315.769 85.1508 315.961 85.6561 315.952H101.872C102.438 315.952 102.981 315.7 103.381 315.25C103.781 314.801 104.006 314.192 104.006 313.556C103.794 310.918 103.001 308.379 101.697 306.171C100.393 303.963 98.62 302.154 96.5378 300.907C94.5536 295.845 93.0517 290.561 92.0571 285.144C93.0386 284.162 94.3614 282.748 95.5563 281.407C98.0624 288.071 100.912 294.567 104.091 300.859C106.694 305.243 106.545 313.437 106.545 313.508C106.545 314.144 106.769 314.753 107.17 315.202C107.57 315.652 108.112 315.904 108.678 315.904H125.278C125.844 315.904 126.387 315.652 126.787 315.202C127.187 314.753 127.412 314.144 127.412 313.508C127.72 310.537 127.038 307.542 125.498 305.101C123.958 302.66 121.668 300.944 119.069 300.284L110.961 285.144C111.605 283.052 112.487 281.063 113.586 279.227C123.682 274.751 132.37 267.014 138.55 256.995C145.953 257.953 154.275 258.384 158.201 258.552C157.518 267.871 155.598 296.883 157.155 303.279C158.883 310.466 160.185 314.275 160.228 314.443C160.38 314.901 160.654 315.296 161.013 315.575C161.371 315.853 161.797 316.001 162.233 316H176.678C177.196 316.006 177.698 315.8 178.09 315.421C178.483 315.042 178.739 314.515 178.812 313.94C179.195 311.246 178.759 308.486 177.574 306.105C176.39 303.723 174.526 301.859 172.283 300.811C172.169 296.025 172.455 291.236 173.136 286.509L180.049 314.203C180.178 314.721 180.459 315.176 180.846 315.493C181.233 315.81 181.704 315.972 182.183 315.952H199.252C199.818 315.952 200.361 315.7 200.761 315.25C201.161 314.801 201.386 314.192 201.386 313.556C201.412 311.128 200.801 308.745 199.629 306.704C198.456 304.663 196.774 303.055 194.793 302.081C191.379 300.548 190.014 295.014 188.904 290.582C188.605 289.408 188.349 288.306 188.051 287.348C187.09 284.09 188.605 269.74 189.822 261.211C196.415 244.945 215.788 202.997 228.227 199.667C236.335 197.487 240.56 192.863 242.758 188.455C242.896 188.252 243.004 188.026 243.078 187.784C244.382 184.856 245.041 181.619 244.998 178.345ZM239.877 183.903C239.421 183.18 239.089 182.367 238.896 181.508L240.517 181.34C240.37 182.213 240.156 183.071 239.877 183.903ZM200.511 147.968C204.254 151.806 207.373 156.345 209.729 161.384C208.318 161.096 206.893 160.904 205.461 160.809C203.74 157.788 201.814 154.921 199.7 152.233L200.511 147.968ZM43.9643 280.113L45.1165 283.107C45.3366 283.646 45.7267 284.074 46.2114 284.309C46.6961 284.543 47.241 284.567 47.7409 284.377L56.8303 280.951V287.18C56.8172 287.731 56.9734 288.269 57.2726 288.706C57.5718 289.142 57.9958 289.449 58.4732 289.576L60.3082 290.055C53.0537 296.284 46.226 300.117 41.3612 300.117C41.6805 293.373 42.5518 286.677 43.9643 280.113ZM111.409 275.322C111.015 275.51 110.681 275.827 110.449 276.232C108.579 278.981 107.281 282.165 106.651 285.551C106.609 286.062 106.714 286.574 106.95 287.012L115.997 303.782C116.175 304.104 116.419 304.374 116.708 304.57C116.997 304.766 117.324 304.882 117.661 304.908C119.068 305.101 120.378 305.812 121.385 306.931C122.393 308.049 123.042 309.512 123.23 311.089H110.855C110.781 306.539 109.711 302.08 107.739 298.104C104.575 291.828 101.726 285.357 99.2048 278.723C106.651 276.663 123.251 268.901 129.076 255.126C130.42 255.51 131.999 255.845 133.685 256.132C127.929 264.653 120.234 271.274 111.409 275.298V275.322ZM193.129 306.609C194.002 307.006 194.781 307.627 195.403 308.421C196.025 309.215 196.474 310.162 196.713 311.185H183.698L174.886 275.897C176.294 269.428 178.257 263.631 180.86 261.187C182.613 259.401 184.636 257.981 186.834 256.995L185.725 259.702C185.645 259.892 185.587 260.094 185.554 260.301C184.999 264.158 182.311 283.658 183.911 289.049C184.189 289.959 184.423 290.989 184.701 292.067C185.938 297.098 187.773 304.189 193.129 306.609ZM227.054 195.067C214.252 198.517 198.186 231.002 190.312 248.802C189.314 250.351 187.89 251.487 186.258 252.036C183.214 253.192 180.426 255.072 178.086 257.546C174.907 260.54 172.518 267.128 170.853 274.315C170.551 274.804 170.422 275.402 170.491 275.992C167.994 287.731 167.397 300.787 168.357 303.638C168.483 303.985 168.681 304.293 168.933 304.539C169.185 304.784 169.484 304.96 169.808 305.052C171.084 305.378 172.231 306.163 173.074 307.287C173.917 308.411 174.411 309.813 174.48 311.28H163.748C163.236 309.556 162.34 306.489 161.273 302.105C160.078 297.314 161.444 272.159 162.639 256.588C162.665 256.255 162.63 255.92 162.535 255.604C162.44 255.288 162.287 254.998 162.086 254.752C161.885 254.507 161.641 254.311 161.368 254.177C161.096 254.043 160.802 253.975 160.505 253.976C160.334 253.976 147.49 253.569 137.568 252.18C134.534 251.842 131.535 251.192 128.607 250.239C128.08 250.038 127.504 250.076 127.002 250.344C126.5 250.613 126.111 251.091 125.918 251.676C120.819 267.104 98.8848 274.819 96.6444 274.842H96.111C95.9222 274.855 95.7356 274.895 95.5563 274.962H95.3856C95.1724 275.077 94.9777 275.231 94.8095 275.417L94.6175 275.681C94.548 275.764 94.4838 275.852 94.4254 275.944C92.5638 278.331 90.5454 280.557 88.3872 282.604C88.105 282.883 87.8933 283.24 87.7734 283.639C87.6536 284.039 87.6297 284.467 87.7044 284.88C87.7044 285.431 90.1794 298.416 93.1452 304.046C93.3538 304.436 93.6573 304.752 94.02 304.956C96.4359 306.257 98.3093 308.558 99.2475 311.376H87.5124L82.3916 279.25L89.6247 270.698C89.7813 270.515 89.911 270.304 90.0088 270.075C90.6915 268.494 95.6416 256.612 96.0257 247.101C96.1413 245.142 95.9683 243.175 95.5136 241.279C93.7853 234.739 98.2234 223.432 100.08 219.718C100.363 219.162 100.437 218.503 100.287 217.885C100.137 217.268 99.7747 216.742 99.2795 216.424C99.0343 216.267 98.764 216.165 98.4839 216.126C98.2037 216.086 97.9193 216.108 97.6469 216.191C97.0967 216.36 96.6287 216.767 96.3457 217.323C96.047 217.946 88.8352 232.847 91.417 242.645C91.703 243.879 91.8182 245.156 91.7584 246.43C85.0899 261.579 75.8149 275.095 64.4688 286.198L61.0976 285.312V277.645C61.0985 277.264 61.0184 276.889 60.8641 276.55C60.7098 276.21 60.4857 275.917 60.2103 275.695C59.9349 275.472 59.6163 275.327 59.2808 275.27C58.9453 275.214 58.6026 275.248 58.2812 275.37L48.253 279.155L45.7566 272.998C59.7321 224.534 101.381 212.148 103.365 211.597C103.963 211.453 162.831 197.511 175.419 194.157C175.753 194.069 176.062 193.893 176.322 193.643C176.582 193.393 176.785 193.076 176.913 192.719C180.278 184.293 185.084 176.69 191.059 170.344C191.388 170.593 191.772 170.734 192.169 170.751C192.734 170.751 193.277 170.499 193.677 170.049C194.077 169.6 194.302 168.991 194.302 168.355V152.688C198.292 157.479 203.37 164.522 204.01 168.739C204.092 169.306 204.353 169.821 204.744 170.19C205.136 170.559 205.633 170.758 206.144 170.751H206.507C207.064 170.645 207.561 170.296 207.889 169.78C208.217 169.263 208.349 168.622 208.256 167.996C208.149 167.32 207.992 166.655 207.787 166.008C211.82 166.631 218.242 168.403 220.973 173.913C223.704 179.423 229.508 181.268 234.543 181.579C234.882 184.141 235.997 186.493 237.701 188.239C234.939 191.798 231.187 194.204 227.054 195.067ZM80.9193 274.124C83.3517 270.698 85.6561 267.224 87.7897 263.631C87.2136 265.236 86.6802 266.625 86.2535 267.655L80.9193 274.124Z" fill="white"/>
<path d="M244.998 178.345C244.977 178.004 244.891 177.673 244.746 177.372C244.602 177.071 244.401 176.809 244.159 176.602C243.916 176.396 243.637 176.25 243.34 176.175C243.044 176.099 242.736 176.096 242.438 176.165C242.31 176.165 228.59 179.304 224.686 171.518C222.369 167.344 218.771 164.268 214.572 162.869C213.1 153.838 201.919 142.866 200.554 141.572C200.27 141.301 199.928 141.117 199.562 141.041C199.196 140.964 198.818 140.996 198.466 141.134C198.114 141.272 197.801 141.512 197.557 141.828C197.313 142.144 197.147 142.527 197.076 142.937L196.201 147.92C194.942 146.459 194.068 145.525 193.683 145.07C193.382 144.747 193.002 144.53 192.592 144.446C192.182 144.363 191.759 144.416 191.375 144.6C190.991 144.783 190.664 145.089 190.433 145.479C190.203 145.869 190.079 146.326 190.078 146.795V164.834C183.092 171.81 177.425 180.291 173.414 189.773C158.947 193.534 103.003 206.782 102.448 206.926C101.893 207.069 56.4676 220.461 41.6173 272.064C41.5082 272.304 41.4361 272.563 41.4039 272.83C38.755 282.399 37.2764 292.328 37.0085 302.345C36.9615 302.933 37.1098 303.52 37.4248 303.993C37.7399 304.466 38.1995 304.792 38.7155 304.908C39.4891 304.988 40.2676 304.988 41.0412 304.908C50.92 304.908 65.5996 293.505 78.0816 277.669C78.0019 278.039 78.0019 278.425 78.0816 278.795L83.5224 313.988C83.6133 314.546 83.8776 315.049 84.2684 315.409C84.6591 315.769 85.1508 315.961 85.6561 315.952H101.872C102.438 315.952 102.981 315.7 103.381 315.25C103.781 314.801 104.006 314.192 104.006 313.556C103.794 310.918 103.001 308.379 101.697 306.171C100.393 303.963 98.62 302.154 96.5378 300.907C94.5536 295.845 93.0517 290.561 92.0571 285.144C93.0386 284.162 94.3614 282.748 95.5563 281.407C98.0624 288.071 100.912 294.567 104.091 300.859C106.694 305.243 106.545 313.437 106.545 313.508C106.545 314.144 106.769 314.753 107.17 315.202C107.57 315.652 108.112 315.904 108.678 315.904H125.278C125.844 315.904 126.387 315.652 126.787 315.202C127.187 314.753 127.412 314.144 127.412 313.508C127.72 310.537 127.038 307.542 125.498 305.101C123.958 302.66 121.668 300.944 119.069 300.284L110.961 285.144C111.605 283.052 112.487 281.063 113.586 279.227C123.682 274.751 132.37 267.014 138.55 256.995C145.953 257.953 154.275 258.384 158.201 258.552C157.518 267.871 155.598 296.883 157.155 303.279C158.883 310.466 160.185 314.275 160.228 314.443C160.38 314.901 160.654 315.296 161.013 315.575C161.371 315.853 161.797 316.001 162.233 316H176.678C177.196 316.006 177.698 315.8 178.09 315.421C178.483 315.042 178.739 314.515 178.812 313.94C179.195 311.246 178.759 308.486 177.574 306.105C176.39 303.723 174.526 301.859 172.283 300.811C172.169 296.025 172.455 291.236 173.136 286.509L180.049 314.203C180.178 314.721 180.459 315.176 180.846 315.493C181.233 315.81 181.704 315.972 182.183 315.952H199.252C199.818 315.952 200.361 315.7 200.761 315.25C201.161 314.801 201.386 314.192 201.386 313.556C201.412 311.128 200.801 308.745 199.629 306.704C198.456 304.663 196.774 303.055 194.793 302.081C191.379 300.548 190.014 295.014 188.904 290.582C188.605 289.408 188.349 288.306 188.051 287.348C187.09 284.09 188.605 269.74 189.822 261.211C196.415 244.945 215.788 202.997 228.227 199.667C236.335 197.487 240.56 192.863 242.758 188.455C242.896 188.252 243.004 188.026 243.078 187.784C244.382 184.856 245.041 181.619 244.998 178.345ZM239.877 183.903C239.421 183.18 239.089 182.367 238.896 181.508L240.517 181.34C240.37 182.213 240.156 183.071 239.877 183.903ZM200.511 147.968C204.254 151.806 207.373 156.345 209.729 161.384C208.318 161.096 206.893 160.904 205.461 160.809C203.74 157.788 201.814 154.921 199.7 152.233L200.511 147.968ZM43.9643 280.113L45.1165 283.107C45.3366 283.646 45.7267 284.074 46.2114 284.309C46.6961 284.543 47.241 284.567 47.7409 284.377L56.8303 280.951V287.18C56.8172 287.731 56.9734 288.269 57.2726 288.706C57.5718 289.142 57.9958 289.449 58.4732 289.576L60.3082 290.055C53.0537 296.284 46.226 300.117 41.3612 300.117C41.6805 293.373 42.5518 286.677 43.9643 280.113ZM111.409 275.322C111.015 275.51 110.681 275.827 110.449 276.232C108.579 278.981 107.281 282.165 106.651 285.551C106.609 286.062 106.714 286.574 106.95 287.012L115.997 303.782C116.175 304.104 116.419 304.374 116.708 304.57C116.997 304.766 117.324 304.882 117.661 304.908C119.068 305.101 120.378 305.812 121.385 306.931C122.393 308.049 123.042 309.512 123.23 311.089H110.855C110.781 306.539 109.711 302.08 107.739 298.104C104.575 291.828 101.726 285.357 99.2048 278.723C106.651 276.663 123.251 268.901 129.076 255.126C130.42 255.51 131.999 255.845 133.685 256.132C127.929 264.653 120.234 271.274 111.409 275.298V275.322ZM193.129 306.609C194.002 307.006 194.781 307.627 195.403 308.421C196.025 309.215 196.474 310.162 196.713 311.185H183.698L174.886 275.897C176.294 269.428 178.257 263.631 180.86 261.187C182.613 259.401 184.636 257.981 186.834 256.995L185.725 259.702C185.645 259.892 185.587 260.094 185.554 260.301C184.999 264.158 182.311 283.658 183.911 289.049C184.189 289.959 184.423 290.989 184.701 292.067C185.938 297.098 187.773 304.189 193.129 306.609ZM227.054 195.067C214.252 198.517 198.186 231.002 190.312 248.802C189.314 250.351 187.89 251.487 186.258 252.036C183.214 253.192 180.426 255.072 178.086 257.546C174.907 260.54 172.518 267.128 170.853 274.315C170.551 274.804 170.422 275.402 170.491 275.992C167.994 287.731 167.397 300.787 168.357 303.638C168.483 303.985 168.681 304.293 168.933 304.539C169.185 304.784 169.484 304.96 169.808 305.052C171.084 305.378 172.231 306.163 173.074 307.287C173.917 308.411 174.411 309.813 174.48 311.28H163.748C163.236 309.556 162.34 306.489 161.273 302.105C160.078 297.314 161.444 272.159 162.639 256.588C162.665 256.255 162.63 255.92 162.535 255.604C162.44 255.288 162.287 254.998 162.086 254.752C161.885 254.507 161.641 254.311 161.368 254.177C161.096 254.043 160.802 253.975 160.505 253.976C160.334 253.976 147.49 253.569 137.568 252.18C134.534 251.842 131.535 251.192 128.607 250.239C128.08 250.038 127.504 250.076 127.002 250.344C126.5 250.613 126.111 251.091 125.918 251.676C120.819 267.104 98.8848 274.819 96.6444 274.842H96.111C95.9222 274.855 95.7356 274.895 95.5563 274.962H95.3856C95.1724 275.077 94.9777 275.231 94.8095 275.417L94.6175 275.681C94.548 275.764 94.4838 275.852 94.4254 275.944C92.5638 278.331 90.5454 280.557 88.3872 282.604C88.105 282.883 87.8933 283.24 87.7734 283.639C87.6536 284.039 87.6297 284.467 87.7044 284.88C87.7044 285.431 90.1794 298.416 93.1452 304.046C93.3538 304.436 93.6573 304.752 94.02 304.956C96.4359 306.257 98.3093 308.558 99.2475 311.376H87.5124L82.3916 279.25L89.6247 270.698C89.7813 270.515 89.911 270.304 90.0088 270.075C90.6915 268.494 95.6416 256.612 96.0257 247.101C96.1413 245.142 95.9683 243.175 95.5136 241.279C93.7853 234.739 98.2234 223.432 100.08 219.718C100.363 219.162 100.437 218.503 100.287 217.885C100.137 217.268 99.7747 216.742 99.2795 216.424C99.0343 216.267 98.764 216.165 98.4839 216.126C98.2037 216.086 97.9193 216.108 97.6469 216.191C97.0967 216.36 96.6287 216.767 96.3457 217.323C96.047 217.946 88.8352 232.847 91.417 242.645C91.703 243.879 91.8182 245.156 91.7584 246.43C85.0899 261.579 75.8149 275.095 64.4688 286.198L61.0976 285.312V277.645C61.0985 277.264 61.0184 276.889 60.8641 276.55C60.7098 276.21 60.4857 275.917 60.2103 275.695C59.9349 275.472 59.6163 275.327 59.2808 275.27C58.9453 275.214 58.6026 275.248 58.2812 275.37L48.253 279.155L45.7566 272.998C59.7321 224.534 101.381 212.148 103.365 211.597C103.963 211.453 162.831 197.511 175.419 194.157C175.753 194.069 176.062 193.893 176.322 193.643C176.582 193.393 176.785 193.076 176.913 192.719C180.278 184.293 185.084 176.69 191.059 170.344C191.388 170.593 191.772 170.734 192.169 170.751C192.734 170.751 193.277 170.499 193.677 170.049C194.077 169.6 194.302 168.991 194.302 168.355V152.688C198.292 157.479 203.37 164.522 204.01 168.739C204.092 169.306 204.353 169.821 204.744 170.19C205.136 170.559 205.633 170.758 206.144 170.751H206.507C207.064 170.645 207.561 170.296 207.889 169.78C208.217 169.263 208.349 168.622 208.256 167.996C208.149 167.32 207.992 166.655 207.787 166.008C211.82 166.631 218.242 168.403 220.973 173.913C223.704 179.423 229.508 181.268 234.543 181.579C234.882 184.141 235.997 186.493 237.701 188.239C234.939 191.798 231.187 194.204 227.054 195.067ZM80.9193 274.124C83.3517 270.698 85.6561 267.224 87.7897 263.631C87.2136 265.236 86.6802 266.625 86.2535 267.655L80.9193 274.124Z" stroke="white" stroke-width="4" mask="url(#path-8-outside-1)"/>
</g>
</svg>
