<svg width="282" height="407" viewBox="0 0 282 407" fill="none" xmlns="http://www.w3.org/2000/svg">
<rect width="282" height="407" rx="16" transform="matrix(1 0 0 -1 0 407)" fill="#2A2A2F"/>
<rect x="16" y="17" width="250" height="375" rx="8" fill="#7BD884"/>
<path d="M16 25C16 20.5817 19.5817 17 24 17H72.1927V55.924C72.1927 86.9583 47.0343 112.117 16 112.117V112.117V25Z" fill="#2A2A2F"/>
<path d="M29.5051 56V50.72C33.1211 48.448 36.0331 46.384 38.2411 44.528C40.4811 42.64 42.1131 40.88 43.1371 39.248C44.1611 37.616 44.6731 36.064 44.6731 34.592C44.6731 33.376 44.3051 32.368 43.5691 31.568C42.8651 30.736 41.8091 30.32 40.4011 30.32C38.8971 30.32 37.7131 30.88 36.8491 32C36.0171 33.088 35.5851 34.688 35.5531 36.8L28.4971 34.64C28.5611 32.304 29.1211 30.336 30.1771 28.736C31.2651 27.104 32.7371 25.888 34.5931 25.088C36.4491 24.256 38.5611 23.84 40.9291 23.84C43.7131 23.84 45.9851 24.352 47.7451 25.376C49.5051 26.368 50.8011 27.648 51.6331 29.216C52.4651 30.752 52.8811 32.352 52.8811 34.016C52.8811 37.088 51.7131 39.888 49.3771 42.416C47.0411 44.912 43.7291 47.392 39.4411 49.856V49.904C40.2411 49.84 41.2491 49.792 42.4651 49.76C43.7131 49.728 44.8331 49.712 45.8251 49.712H53.2651V56H29.5051ZM54.6712 61.24V85H49.1992V74.092L49.3792 66.784H49.3072L43.4392 85H38.4352L32.5672 66.784H32.4952L32.6752 74.092V85H27.1672V61.24H35.9872L39.7312 73.336L41.0632 78.376H41.1352L42.5032 73.372L46.2112 61.24H54.6712Z" fill="white"/>
<path d="M132 392C132 373.775 146.775 359 165 359H266V392H132V392Z" fill="#2A2A2F"/>
<path d="M156.659 386.388L163.155 367.908H168.923L175.391 386.388H170.435L169.175 382.216H162.791L161.503 386.388H156.659ZM165.199 374.488L163.799 378.94H168.167L166.823 374.516L166.011 371.604H165.955L165.199 374.488ZM193.237 381.096C192.695 383.037 191.697 384.456 190.241 385.352C188.803 386.229 187.105 386.668 185.145 386.668C183.259 386.668 181.635 386.294 180.273 385.548C178.929 384.782 177.893 383.69 177.165 382.272C176.437 380.853 176.073 379.145 176.073 377.148C176.073 375.15 176.437 373.442 177.165 372.024C177.893 370.605 178.929 369.522 180.273 368.776C181.635 368.01 183.25 367.628 185.117 367.628C187.039 367.628 188.719 368.038 190.157 368.86C191.594 369.681 192.546 370.969 193.013 372.724L188.785 374.432C188.523 373.293 188.094 372.509 187.497 372.08C186.918 371.632 186.181 371.408 185.285 371.408C183.941 371.408 182.886 371.893 182.121 372.864C181.374 373.834 181.001 375.262 181.001 377.148C181.001 379.033 181.355 380.461 182.065 381.432C182.793 382.402 183.875 382.888 185.313 382.888C186.209 382.888 186.965 382.645 187.581 382.16C188.215 381.656 188.645 380.89 188.869 379.864L193.237 381.096ZM211.455 367.908V371.632H205.435V386.388H200.619V371.632H194.571V367.908H211.455ZM219.024 367.908V386.388H214.208V367.908H219.024ZM231.41 367.628C233.277 367.628 234.882 368.01 236.226 368.776C237.589 369.522 238.634 370.605 239.362 372.024C240.09 373.442 240.454 375.15 240.454 377.148C240.454 379.145 240.09 380.853 239.362 382.272C238.634 383.69 237.589 384.782 236.226 385.548C234.882 386.294 233.277 386.668 231.41 386.668C229.525 386.668 227.901 386.294 226.538 385.548C225.194 384.782 224.158 383.69 223.43 382.272C222.702 380.853 222.338 379.145 222.338 377.148C222.338 375.15 222.702 373.442 223.43 372.024C224.158 370.605 225.194 369.522 226.538 368.776C227.901 368.01 229.525 367.628 231.41 367.628ZM231.41 371.408C230.066 371.408 229.04 371.893 228.33 372.864C227.621 373.816 227.266 375.244 227.266 377.148C227.266 379.052 227.621 380.489 228.33 381.46C229.04 382.412 230.066 382.888 231.41 382.888C232.736 382.888 233.753 382.412 234.462 381.46C235.172 380.489 235.526 379.052 235.526 377.148C235.526 375.244 235.172 373.816 234.462 372.864C233.753 371.893 232.736 371.408 231.41 371.408ZM260.427 367.908V386.388H255.079L249.339 376.392L247.939 373.648H247.911L248.023 377.064V386.388H243.767V367.908H249.115L254.855 377.904L256.255 380.648H256.283L256.171 377.232V367.908H260.427Z" fill="white"/>
<path d="M115.739 29.86C118.315 29.86 120.583 30.266 122.543 31.078C124.531 31.862 126.253 33.024 127.709 34.564L124.223 39.226C123.019 37.966 121.717 37.028 120.317 36.412C118.945 35.768 117.377 35.446 115.613 35.446C114.073 35.446 112.967 35.698 112.295 36.202C111.623 36.706 111.287 37.322 111.287 38.05C111.287 38.638 111.553 39.142 112.085 39.562C112.645 39.954 113.541 40.29 114.773 40.57L119.435 41.62C122.207 42.264 124.237 43.202 125.525 44.434C126.813 45.666 127.457 47.304 127.457 49.348C127.457 51.308 126.953 52.974 125.945 54.346C124.937 55.69 123.551 56.712 121.787 57.412C120.023 58.084 118.007 58.42 115.739 58.42C112.939 58.42 110.377 57.972 108.053 57.076C105.729 56.152 103.881 54.948 102.509 53.464L105.995 48.634C107.031 49.838 108.431 50.846 110.195 51.658C111.959 52.442 113.779 52.834 115.655 52.834C118.567 52.834 120.023 51.98 120.023 50.272C120.023 49.684 119.799 49.194 119.351 48.802C118.931 48.382 118.147 48.032 116.999 47.752L111.875 46.618C110.307 46.282 108.907 45.806 107.675 45.19C106.471 44.574 105.519 43.762 104.819 42.754C104.119 41.718 103.769 40.43 103.769 38.89C103.769 37.154 104.245 35.614 105.197 34.27C106.149 32.898 107.521 31.82 109.313 31.036C111.105 30.252 113.247 29.86 115.739 29.86ZM154.791 30.28V35.866H145.761V58H138.537V35.866H129.465V30.28H154.791ZM152.536 58L162.28 30.28H170.932L180.634 58H173.2L171.31 51.742H161.734L159.802 58H152.536ZM165.346 40.15L163.246 46.828H169.798L167.782 40.192L166.564 35.824H166.48L165.346 40.15ZM197.088 30.28C200.392 30.28 202.954 31.05 204.774 32.59C206.622 34.13 207.546 36.202 207.546 38.806C207.546 40.878 207.056 42.586 206.076 43.93C205.124 45.246 203.752 46.212 201.96 46.828L209.184 58H201.204L195.282 47.878H190.956V58H183.858V30.28H197.088ZM196.08 42.754C197.48 42.754 198.53 42.474 199.23 41.914C199.93 41.354 200.28 40.458 200.28 39.226C200.28 36.902 198.88 35.74 196.08 35.74H190.956V42.754H196.08ZM235.797 30.28V35.866H226.767V58H219.543V35.866H210.471V30.28H235.797ZM123.906 77.866H109.584V83.746H121.008V89.332H109.584V100H102.36V72.28H123.906V77.866ZM141.307 72.28C144.611 72.28 147.173 73.05 148.993 74.59C150.841 76.13 151.765 78.202 151.765 80.806C151.765 82.878 151.275 84.586 150.295 85.93C149.343 87.246 147.971 88.212 146.179 88.828L153.403 100H145.423L139.501 89.878H135.175V100H128.077V72.28H141.307ZM140.299 84.754C141.699 84.754 142.749 84.474 143.449 83.914C144.149 83.354 144.499 82.458 144.499 81.226C144.499 78.902 143.099 77.74 140.299 77.74H135.175V84.754H140.299ZM157.034 100V72.28H178.622V77.866H164.258V83.494H175.682V88.744H164.258V94.414H179.168V100H157.034ZM194.366 71.86C196.942 71.86 199.21 72.266 201.17 73.078C203.158 73.862 204.88 75.024 206.336 76.564L202.85 81.226C201.646 79.966 200.344 79.028 198.944 78.412C197.572 77.768 196.004 77.446 194.24 77.446C192.7 77.446 191.594 77.698 190.922 78.202C190.25 78.706 189.914 79.322 189.914 80.05C189.914 80.638 190.18 81.142 190.712 81.562C191.272 81.954 192.168 82.29 193.4 82.57L198.062 83.62C200.834 84.264 202.864 85.202 204.152 86.434C205.44 87.666 206.084 89.304 206.084 91.348C206.084 93.308 205.58 94.974 204.572 96.346C203.564 97.69 202.178 98.712 200.414 99.412C198.65 100.084 196.634 100.42 194.366 100.42C191.566 100.42 189.004 99.972 186.68 99.076C184.356 98.152 182.508 96.948 181.136 95.464L184.622 90.634C185.658 91.838 187.058 92.846 188.822 93.658C190.586 94.442 192.406 94.834 194.282 94.834C197.194 94.834 198.65 93.98 198.65 92.272C198.65 91.684 198.426 91.194 197.978 90.802C197.558 90.382 196.774 90.032 195.626 89.752L190.502 88.618C188.934 88.282 187.534 87.806 186.302 87.19C185.098 86.574 184.146 85.762 183.446 84.754C182.746 83.718 182.396 82.43 182.396 80.89C182.396 79.154 182.872 77.614 183.824 76.27C184.776 74.898 186.148 73.82 187.94 73.036C189.732 72.252 191.874 71.86 194.366 71.86ZM217.824 72.28V83.242H228.408V72.28H235.632V100H228.408V88.828H217.824V100H210.6V72.28H217.824Z" fill="#2A2A2F"/>
<path d="M128.684 305.532L94.9601 315.668C90.3529 316.958 85.5615 314.378 84.0872 309.955C82.7972 305.348 85.3772 300.556 89.8001 299.082L102.332 295.396C79.4801 281.943 64 257.065 64 228.5C64 196.619 83.5343 169.16 111.177 157.366C116.89 154.97 123.34 159.209 123.34 165.29C123.34 168.792 121.313 171.924 118.18 173.214C96.4344 182.429 81.3229 203.622 81.3229 228.5C81.3229 250.983 93.8544 270.702 112.283 280.838L107.86 265.91C106.57 261.303 109.15 256.512 113.573 255.038C118.18 253.748 122.972 256.328 124.446 260.75L134.582 294.475C135.872 299.266 133.292 304.058 128.684 305.532Z" fill="white" fill-opacity="0.75"/>
<path d="M192.079 157.918L179.548 161.604C202.583 175.057 218.063 199.936 218.063 228.5C218.063 260.382 198.529 287.84 170.886 299.635C165.173 302.03 158.723 297.792 158.723 291.71C158.723 288.209 160.75 285.076 163.883 283.786C185.629 274.572 200.74 253.379 200.74 228.5C200.74 206.017 188.209 186.298 169.78 176.163L174.203 191.09C175.493 195.697 172.913 200.488 168.49 201.963C163.883 203.253 159.092 200.673 157.617 196.25L147.482 162.525C146.192 157.918 148.772 153.127 153.379 151.653L187.103 141.333C191.71 140.043 196.502 142.623 197.976 147.045C199.266 151.653 196.686 156.628 192.079 157.918Z" fill="white" fill-opacity="0.75"/>
</svg>
