<svg width="282" height="407" viewBox="0 0 282 407" fill="none" xmlns="http://www.w3.org/2000/svg">
<rect width="282" height="407" rx="16" transform="matrix(1 0 0 -1 0 407)" fill="#2A2A2F"/>
<rect x="16" y="17" width="250" height="375" rx="8" fill="white"/>
<rect x="16" y="17" width="250" height="375" rx="8" fill="#6AF9DF"/>
<path d="M16 25C16 20.5817 19.5817 17 24 17H72.1927V55.924C72.1927 86.9583 47.0343 112.117 16 112.117V112.117V25Z" fill="#2A2A2F"/>
<path d="M29.5051 56V50.72C33.1211 48.448 36.0331 46.384 38.2411 44.528C40.4811 42.64 42.1131 40.88 43.1371 39.248C44.1611 37.616 44.6731 36.064 44.6731 34.592C44.6731 33.376 44.3051 32.368 43.5691 31.568C42.8651 30.736 41.8091 30.32 40.4011 30.32C38.8971 30.32 37.7131 30.88 36.8491 32C36.0171 33.088 35.5851 34.688 35.5531 36.8L28.4971 34.64C28.5611 32.304 29.1211 30.336 30.1771 28.736C31.2651 27.104 32.7371 25.888 34.5931 25.088C36.4491 24.256 38.5611 23.84 40.9291 23.84C43.7131 23.84 45.9851 24.352 47.7451 25.376C49.5051 26.368 50.8011 27.648 51.6331 29.216C52.4651 30.752 52.8811 32.352 52.8811 34.016C52.8811 37.088 51.7131 39.888 49.3771 42.416C47.0411 44.912 43.7291 47.392 39.4411 49.856V49.904C40.2411 49.84 41.2491 49.792 42.4651 49.76C43.7131 49.728 44.8331 49.712 45.8251 49.712H53.2651V56H29.5051ZM54.6712 61.24V85H49.1992V74.092L49.3792 66.784H49.3072L43.4392 85H38.4352L32.5672 66.784H32.4952L32.6752 74.092V85H27.1672V61.24H35.9872L39.7312 73.336L41.0632 78.376H41.1352L42.5032 73.372L46.2112 61.24H54.6712Z" fill="white"/>
<path d="M82 392C82 373.775 96.7746 359 115 359H266V392H82V392Z" fill="#2A2A2F"/>
<path d="M121.573 367.908C123.813 367.908 125.558 368.449 126.809 369.532C128.078 370.596 128.713 372.108 128.713 374.068C128.713 376.028 128.078 377.549 126.809 378.632C125.558 379.696 123.813 380.228 121.573 380.228H117.905V386.388H113.089V367.908H121.573ZM120.817 376.616C122.852 376.616 123.869 375.766 123.869 374.068C123.869 372.369 122.852 371.52 120.817 371.52H117.905V376.616H120.817ZM140.612 367.908C142.815 367.908 144.523 368.421 145.736 369.448C146.968 370.474 147.584 371.856 147.584 373.592C147.584 374.973 147.257 376.112 146.604 377.008C145.969 377.885 145.055 378.529 143.86 378.94L148.676 386.388H143.356L139.408 379.64H136.524V386.388H131.792V367.908H140.612ZM139.94 376.224C140.873 376.224 141.573 376.037 142.04 375.664C142.507 375.29 142.74 374.693 142.74 373.872C142.74 372.322 141.807 371.548 139.94 371.548H136.524V376.224H139.94ZM159.193 367.628C161.06 367.628 162.665 368.01 164.009 368.776C165.372 369.522 166.417 370.605 167.145 372.024C167.873 373.442 168.237 375.15 168.237 377.148C168.237 379.145 167.873 380.853 167.145 382.272C166.417 383.69 165.372 384.782 164.009 385.548C162.665 386.294 161.06 386.668 159.193 386.668C157.308 386.668 155.684 386.294 154.321 385.548C152.977 384.782 151.941 383.69 151.213 382.272C150.485 380.853 150.121 379.145 150.121 377.148C150.121 375.15 150.485 373.442 151.213 372.024C151.941 370.605 152.977 369.522 154.321 368.776C155.684 368.01 157.308 367.628 159.193 367.628ZM159.193 371.408C157.849 371.408 156.823 371.893 156.113 372.864C155.404 373.816 155.049 375.244 155.049 377.148C155.049 379.052 155.404 380.489 156.113 381.46C156.823 382.412 157.849 382.888 159.193 382.888C160.519 382.888 161.536 382.412 162.245 381.46C162.955 380.489 163.309 379.052 163.309 377.148C163.309 375.244 162.955 373.816 162.245 372.864C161.536 371.893 160.519 371.408 159.193 371.408ZM180.034 367.908C182.274 367.908 184.019 368.449 185.27 369.532C186.539 370.596 187.174 372.108 187.174 374.068C187.174 376.028 186.539 377.549 185.27 378.632C184.019 379.696 182.274 380.228 180.034 380.228H176.366V386.388H171.55V367.908H180.034ZM179.278 376.616C181.313 376.616 182.33 375.766 182.33 374.068C182.33 372.369 181.313 371.52 179.278 371.52H176.366V376.616H179.278ZM190.253 386.388V367.908H204.645V371.632H195.069V375.384H202.685V378.884H195.069V382.664H205.009V386.388H190.253ZM216.737 367.908C218.94 367.908 220.648 368.421 221.861 369.448C223.093 370.474 223.709 371.856 223.709 373.592C223.709 374.973 223.382 376.112 222.729 377.008C222.094 377.885 221.18 378.529 219.985 378.94L224.801 386.388H219.481L215.533 379.64H212.649V386.388H207.917V367.908H216.737ZM216.065 376.224C216.998 376.224 217.698 376.037 218.165 375.664C218.632 375.29 218.865 374.693 218.865 373.872C218.865 372.322 217.932 371.548 216.065 371.548H212.649V376.224H216.065ZM242.543 367.908V371.632H236.523V386.388H231.707V371.632H225.659V367.908H242.543ZM260.876 367.908L254.352 379.64V386.388H249.536V379.64L243.012 367.908H247.996L250.6 372.976L251.972 376.056L253.372 372.976L255.976 367.908H260.876Z" fill="white"/>
<path d="M141.347 71.062C140.535 73.974 139.037 76.102 136.853 77.446C134.697 78.762 132.149 79.42 129.209 79.42C126.381 79.42 123.945 78.86 121.901 77.74C119.885 76.592 118.331 74.954 117.239 72.826C116.147 70.698 115.601 68.136 115.601 65.14C115.601 62.144 116.147 59.582 117.239 57.454C118.331 55.326 119.885 53.702 121.901 52.582C123.945 51.434 126.367 50.86 129.167 50.86C132.051 50.86 134.571 51.476 136.727 52.708C138.883 53.94 140.311 55.872 141.011 58.504L134.669 61.066C134.277 59.358 133.633 58.182 132.737 57.538C131.869 56.866 130.763 56.53 129.419 56.53C127.403 56.53 125.821 57.258 124.673 58.714C123.553 60.17 122.993 62.312 122.993 65.14C122.993 67.968 123.525 70.11 124.589 71.566C125.681 73.022 127.305 73.75 129.461 73.75C130.805 73.75 131.939 73.386 132.863 72.658C133.815 71.902 134.459 70.754 134.795 69.214L141.347 71.062ZM168.653 51.28L158.867 68.878V79H151.643V68.878L141.857 51.28H149.333L153.239 58.882L155.297 63.502L157.397 58.882L161.303 51.28H168.653ZM164.902 79L174.646 51.28H183.298L193 79H185.566L183.676 72.742H174.1L172.168 79H164.902ZM177.712 61.15L175.612 67.828H182.164L180.148 61.192L178.93 56.824H178.846L177.712 61.15ZM221.214 51.28V79H213.192L204.582 64.006L202.482 59.89H202.44L202.608 65.014V79H196.224V51.28H204.246L212.856 66.274L214.956 70.39H214.998L214.83 65.266V51.28H221.214Z" fill="#2A2A2F"/>
<path d="M246.262 207.339L144.536 117.39C142.44 115.537 139.302 115.537 137.206 117.39L34.8666 207.882C33.146 209.405 32.5437 211.834 33.3594 213.984C34.1724 216.134 36.2334 217.557 38.532 217.557H61.4265V303.468C61.4265 306.523 63.9034 309 66.9583 309H118.744V234.628C118.744 231.573 121.221 229.096 124.276 229.096H157.467C160.522 229.096 162.998 231.573 162.998 234.628V309H214.784C217.839 309 220.316 306.523 220.316 303.468V217.557H243.21C243.245 217.557 243.283 217.554 243.321 217.557C246.376 217.557 248.853 215.08 248.853 212.025C248.853 210.051 247.818 208.317 246.262 207.339Z" fill="white" fill-opacity="0.75"/>
</svg>
