<svg width="282" height="407" viewBox="0 0 282 407" fill="none" xmlns="http://www.w3.org/2000/svg">
<rect width="282" height="407" rx="16" transform="matrix(1 0 0 -1 0 407)" fill="#2A2A2F"/>
<rect x="16" y="17" width="250" height="375" rx="8" fill="#FF92A2"/>
<path d="M16 25C16 20.5817 19.5817 17 24 17H72.1927V55.924C72.1927 86.9583 47.0343 112.117 16 112.117V25Z" fill="#2A2A2F"/>
<path d="M40.8991 23.936C44.4831 23.936 47.3471 24.72 49.4911 26.288C51.6351 27.824 52.7071 29.936 52.7071 32.624C52.7071 34.32 52.2911 35.792 51.4591 37.04C50.6271 38.256 49.3951 39.168 47.7631 39.776V39.824C49.6831 40.464 51.1711 41.408 52.2271 42.656C53.2831 43.872 53.8111 45.44 53.8111 47.36C53.8111 50.112 52.6591 52.32 50.3551 53.984C48.0831 55.648 44.9311 56.48 40.8991 56.48C36.8991 56.48 33.7471 55.648 31.4431 53.984C29.1711 52.32 28.0351 50.112 28.0351 47.36C28.0351 45.44 28.5631 43.872 29.6191 42.656C30.6751 41.408 32.1631 40.464 34.0831 39.824V39.776C32.4511 39.168 31.2031 38.256 30.3391 37.04C29.5071 35.792 29.0911 34.32 29.0911 32.624C29.0911 29.936 30.1631 27.824 32.3071 26.288C34.4831 24.72 37.3471 23.936 40.8991 23.936ZM40.8991 29.936C39.6191 29.936 38.5951 30.256 37.8271 30.896C37.0911 31.536 36.7231 32.432 36.7231 33.584C36.7231 34.704 37.0911 35.6 37.8271 36.272C38.5951 36.912 39.6191 37.232 40.8991 37.232C42.1791 37.232 43.2031 36.912 43.9711 36.272C44.7391 35.6 45.1231 34.704 45.1231 33.584C45.1231 32.432 44.7391 31.536 43.9711 30.896C43.2351 30.256 42.2111 29.936 40.8991 29.936ZM40.8991 50.48C42.4351 50.48 43.6351 50.128 44.4991 49.424C45.3631 48.72 45.7951 47.76 45.7951 46.544C45.7951 45.296 45.3471 44.336 44.4511 43.664C43.5871 42.96 42.4031 42.608 40.8991 42.608C39.4271 42.608 38.2431 42.96 37.3471 43.664C36.4831 44.336 36.0511 45.296 36.0511 46.544C36.0511 47.76 36.4831 48.72 37.3471 49.424C38.2111 50.128 39.3951 50.48 40.8991 50.48ZM54.6712 61.24V85H49.1992V74.092L49.3792 66.784H49.3072L43.4392 85H38.4352L32.5672 66.784H32.4952L32.6752 74.092V85H27.1672V61.24H35.9872L39.7312 73.336L41.0632 78.376H41.1352L42.5032 73.372L46.2112 61.24H54.6712Z" fill="white"/>
<path d="M163 392C163 373.775 177.775 359 196 359H266V392H163Z" fill="#2A2A2F"/>
<path d="M204.147 381.096C203.605 383.037 202.607 384.456 201.151 385.352C199.713 386.229 198.015 386.668 196.055 386.668C194.169 386.668 192.545 386.294 191.183 385.548C189.839 384.782 188.803 383.69 188.075 382.272C187.347 380.853 186.983 379.145 186.983 377.148C186.983 375.15 187.347 373.442 188.075 372.024C188.803 370.605 189.839 369.522 191.183 368.776C192.545 368.01 194.16 367.628 196.027 367.628C197.949 367.628 199.629 368.038 201.067 368.86C202.504 369.681 203.456 370.969 203.923 372.724L199.695 374.432C199.433 373.293 199.004 372.509 198.407 372.08C197.828 371.632 197.091 371.408 196.195 371.408C194.851 371.408 193.796 371.893 193.031 372.864C192.284 373.834 191.911 375.262 191.911 377.148C191.911 379.033 192.265 380.461 192.975 381.432C193.703 382.402 194.785 382.888 196.223 382.888C197.119 382.888 197.875 382.645 198.491 382.16C199.125 381.656 199.555 380.89 199.779 379.864L204.147 381.096ZM204.893 386.388L211.389 367.908H217.157L223.625 386.388H218.669L217.409 382.216H211.025L209.737 386.388H204.893ZM213.433 374.488L212.033 378.94H216.401L215.057 374.516L214.245 371.604H214.189L213.433 374.488ZM232.917 367.628C234.634 367.628 236.146 367.898 237.453 368.44C238.778 368.962 239.926 369.737 240.897 370.764L238.573 373.872C237.77 373.032 236.902 372.406 235.969 371.996C235.054 371.566 234.009 371.352 232.833 371.352C231.806 371.352 231.069 371.52 230.621 371.856C230.173 372.192 229.949 372.602 229.949 373.088C229.949 373.48 230.126 373.816 230.481 374.096C230.854 374.357 231.451 374.581 232.273 374.768L235.381 375.468C237.229 375.897 238.582 376.522 239.441 377.344C240.299 378.165 240.729 379.257 240.729 380.62C240.729 381.926 240.393 383.037 239.721 383.952C239.049 384.848 238.125 385.529 236.949 385.996C235.773 386.444 234.429 386.668 232.917 386.668C231.05 386.668 229.342 386.369 227.793 385.772C226.243 385.156 225.011 384.353 224.097 383.364L226.421 380.144C227.111 380.946 228.045 381.618 229.221 382.16C230.397 382.682 231.61 382.944 232.861 382.944C234.802 382.944 235.773 382.374 235.773 381.236C235.773 380.844 235.623 380.517 235.325 380.256C235.045 379.976 234.522 379.742 233.757 379.556L230.341 378.8C229.295 378.576 228.362 378.258 227.541 377.848C226.738 377.437 226.103 376.896 225.637 376.224C225.17 375.533 224.937 374.674 224.937 373.648C224.937 372.49 225.254 371.464 225.889 370.568C226.523 369.653 227.438 368.934 228.633 368.412C229.827 367.889 231.255 367.628 232.917 367.628ZM248.555 367.908V375.216H255.611V367.908H260.427V386.388H255.611V378.94H248.555V386.388H243.739V367.908H248.555Z" fill="white"/>
<path d="M128.028 328.344V302.136C112.668 300.6 98.556 296.952 85.692 291.192C73.02 285.432 62.748 278.328 54.876 269.88L78.204 237.624C83.388 244.92 90.492 250.968 99.516 255.768C108.54 260.568 118.044 263.832 128.028 265.56V225.528L116.22 222.648C100.668 219 87.9 213.24 77.916 205.368C68.124 197.304 63.228 186.456 63.228 172.824C63.228 157.272 68.892 144.12 80.22 133.368C91.548 122.424 107.484 115.8 128.028 113.496V87.576H158.268V113.496C184.764 116.376 206.172 126.648 222.492 144.312L200.028 173.4C194.076 167.064 187.644 161.88 180.732 157.848C174.012 153.816 166.524 151.032 158.268 149.496V190.68L167.772 192.696C186.012 196.728 199.452 202.68 208.092 210.552C216.732 218.232 221.052 228.888 221.052 242.52C221.052 259.8 215.196 273.528 203.484 283.704C191.964 293.688 176.892 299.832 158.268 302.136V328.344H128.028ZM107.58 166.2C107.58 170.04 108.828 173.4 111.324 176.28C114.012 178.968 119.58 181.464 128.028 183.768V148.632C120.924 149.784 115.74 151.992 112.476 155.256C109.212 158.328 107.58 161.976 107.58 166.2ZM178.14 248.856C178.14 245.208 176.604 242.04 173.532 239.352C170.652 236.664 165.564 234.456 158.268 232.728V266.424C171.516 264.12 178.14 258.264 178.14 248.856Z" fill="white" fill-opacity="0.75"/>
</svg>
